<?xml version="1.0" encoding="UTF-8"?><svg id="Layer_2" xmlns="http://www.w3.org/2000/svg" viewBox="0 0 7.35 14.04"><defs><style>.cls-1{fill:#fff;}</style></defs><g id="Layer_1-2"><path class="cls-1" d="M7.35,4.22c0,.06-.01,.12-.02,.18-.02,.24-.06,.47-.13,.69-.16,.56-.42,1.06-.79,1.5-.3,.36-.65,.66-1.06,.89-.41,.24-.84,.4-1.3,.48-.03,0-.04,.02-.04,.05,0,.66,0,1.31,0,1.97t.04,.05c.63,0,1.25,0,1.88,0,.23,0,.47,0,.7,0,.04,0,.05,0,.05,.05,0,.42,0,.84,0,1.25,0,.04,0,.04-.05,.04-.86,0-1.72,0-2.58,0t-.05,.05v2.57s0,.02,0,.03c0,.02,0,.03-.03,.03,0,0-.02,0-.03,0-.41,0-.83,0-1.24,0q-.05,0-.05-.05v-2.57s0-.05-.05-.05H.05q-.05,0-.05-.05c0-.41,0-.83,0-1.24t.05-.05H2.65s.02,0,.02-.02c0-.01,0-.02,0-.03,0-1.07,0-2.14,0-3.21,0-.01,0-.02,0-.03,0-.03,0-.04,.04-.04,.22,0,.43,0,.65,0,.66,0,1.24-.23,1.73-.66,.45-.39,.74-.88,.86-1.47,.05-.23,.07-.46,.05-.69-.03-.58-.23-1.1-.6-1.55-.41-.5-.94-.81-1.58-.93-.16-.03-.33-.05-.49-.04-.64,0-1.22,.22-1.71,.63-.05,.04-.1,.08-.14,.13-.02,.02-.03,.02-.05,0-.3-.3-.6-.6-.9-.91-.02-.02-.02-.03,0-.05,.27-.26,.57-.49,.91-.67,.32-.17,.66-.3,1.01-.38,.18-.04,.37-.07,.55-.09,.07,0,.14-.01,.22-.01,0,0,.02,0,.03,0,.07,0,.14,0,.21,0,0,0,.02,0,.03,0,.1,0,.21,0,.31,.02,.28,.03,.55,.09,.82,.18,.71,.24,1.31,.64,1.79,1.21,.39,.45,.66,.97,.82,1.54,.06,.22,.1,.44,.12,.67l.02,.18v.42Z"/></g></svg>