<?xml version="1.0" encoding="UTF-8"?><svg id="Layer_2" xmlns="http://www.w3.org/2000/svg" viewBox="0 0 13.99 13.99"><defs><style>.cls-1{fill:#fff;}</style></defs><g id="Layer_1-2"><path class="cls-1" d="M6.99,0h.02s.04,0,.06,0c.29,0,.57,.02,.86,.06,.4,.05,.78,.14,1.17,.26,1.15,.37,2.15,.99,2.98,1.86,.45,.47,.82,1,1.13,1.58,.35,.66,.58,1.36,.7,2.1,.04,.26,.08,.51,.08,.77,0,.02,0,.04,0,.06v.58s0,.04,0,.06c0,.16-.02,.32-.04,.48-.05,.43-.14,.85-.27,1.27-.37,1.15-.99,2.14-1.86,2.98-.46,.44-.97,.81-1.53,1.1-.89,.47-1.83,.74-2.83,.8-.05,0-.1,0-.15,.02h-.58c-.05-.01-.11-.01-.17-.02-.22-.01-.43-.04-.65-.07-.57-.09-1.12-.25-1.65-.48-.98-.42-1.82-1.03-2.51-1.83-.77-.88-1.29-1.9-1.55-3.04-.11-.48-.16-.96-.18-1.45,0-.03,0-.06,0-.09v-.04s0-.05,0-.08c0-.24,.02-.48,.05-.72,.06-.5,.17-.99,.34-1.47,.4-1.14,1.05-2.11,1.95-2.92C3.22,1,4.24,.47,5.39,.19c.31-.07,.63-.13,.94-.16,.19-.02,.38-.03,.58-.03,.03,0,.06,0,.08,0Zm.66,10.15c0,.8,0,1.6,0,2.4,0,.02,0,.04,0,.06,0,.05,.01,.06,.06,.05,.21-.03,.42-.06,.63-.11,.94-.23,1.78-.67,2.5-1.32,.61-.55,1.08-1.21,1.4-1.96,.21-.49,.35-1,.42-1.53,.01-.1,.03-.1-.09-.1-1.61,0-3.22,0-4.83,0q-.1,0-.1,.1c0,.81,0,1.61,0,2.42Zm2.52-3.8c.34,0,.68,0,1.02,0,.47,0,.94,0,1.42,0,.07,0,.07,0,.06-.07-.01-.13-.03-.26-.06-.38-.21-1.07-.69-2.01-1.43-2.8-.51-.55-1.11-.98-1.79-1.3-.52-.24-1.07-.4-1.64-.47-.1-.01-.1-.01-.1,.08,0,1.61,0,3.23,0,4.84q0,.1,.1,.1c.81,0,1.61,0,2.42,0Zm-3.81,3.8c0-.8,0-1.61,0-2.41q0-.1-.1-.1c-1.61,0-3.21,0-4.82,0-.02,0-.03,0-.05,0-.04,0-.05,.01-.05,.05,0,.05,.01,.09,.02,.14,.09,.6,.27,1.17,.54,1.71,.47,.94,1.15,1.69,2.04,2.26,.63,.41,1.32,.67,2.06,.81,.1,.02,.2,.03,.31,.05,.04,0,.05,0,.06-.05,0-.02,0-.05,0-.07,0-.8,0-1.6,0-2.39Zm0-6.31c0-.8,0-1.6,0-2.4,0-.02,0-.05,0-.07,0-.03-.01-.04-.05-.04-.03,0-.06,0-.09,.01-.38,.05-.76,.14-1.12,.27-1.13,.41-2.05,1.1-2.75,2.08-.52,.73-.85,1.54-.98,2.42,0,.06-.02,.12-.02,.18,0,.05,0,.06,.05,.06,.02,0,.04,0,.05,0,1.6,0,3.2,0,4.8,0,.11,0,.11,.01,.11-.11,0-.8,0-1.6,0-2.4Z"/></g></svg>