<?xml version="1.0" encoding="UTF-8"?><svg id="Layer_2" xmlns="http://www.w3.org/2000/svg" viewBox="0 0 10.65 14.34"><defs><style>.cls-1{fill:#fff;}</style></defs><g id="Layer_1-2"><path class="cls-1" d="M6.53,14.34s0-.03,0-.05c0-.88,0-1.76,0-2.64,0-.06,0-.06-.05-.06-2.03,0-4.05,0-6.08,0-.06,0-.05,0-.07-.05-.11-.4-.21-.8-.32-1.2,0-.03,0-.04,.02-.05,.42-.25,.8-.55,1.14-.9,.35-.37,.65-.78,.88-1.24,.25-.49,.42-1,.51-1.54,.03-.18,.05-.37,.06-.56,0-.12,.01-.24,.01-.36-.01-.73-.16-1.43-.46-2.1-.23-.52-.54-.99-.93-1.41C.89,1.8,.49,1.48,.04,1.22c-.06-.03-.05-.02-.02-.08C.24,.77,.45,.4,.66,.02c.01-.03,.03-.03,.05-.02,.43,.25,.83,.55,1.19,.89,.52,.49,.95,1.05,1.3,1.68,.33,.61,.56,1.25,.69,1.93,.04,.23,.07,.46,.09,.7,.02,.21,.03,.41,.02,.62,0,.4-.05,.8-.12,1.19-.18,.91-.53,1.74-1.06,2.5-.15,.22-.32,.44-.5,.64-.01,.01-.02,.03-.03,.04,.01,.01,.03,0,.04,0,1.38,0,2.76,0,4.15,0t.05-.05v-2.64s0-.02,0-.04c0-.02,0-.03,.03-.03,0,0,.02,0,.02,0,.43,0,.85,0,1.28,0t.05,.05c0,.88,0,1.76,0,2.64v.04s0,.02,.02,.02h.04c.88,0,1.76,0,2.64,0h.05v1.38s-.03,0-.05,0c-.88,0-1.76,0-2.64,0q-.05,0-.05,.05c0,.76,0,1.52,0,2.28,0,.14,0,.28,0,.42h-1.38Z"/></g></svg>