<?xml version="1.0" encoding="UTF-8"?><svg id="Layer_2" xmlns="http://www.w3.org/2000/svg" viewBox="0 0 13.99 13.99"><defs><style>.cls-1{fill:#fff;}</style></defs><g id="Layer_1-2"><path class="cls-1" d="M11.11,0h2.88V2.89s-.06,0-.09,0c-.37,0-.73,0-1.1,0-.02,0-.03,0-.05,0-.04,0-.05,0-.05-.05,0-.02,0-.04,0-.06,0-.17,0-.33,0-.5,0-.02,0-.04-.01-.06-.03,0-.04,.03-.06,.05-.79,.79-1.58,1.58-2.37,2.37l-.02,.02s-.04,.04,0,.09c.03,.04,.06,.08,.09,.11,.44,.59,.75,1.24,.94,1.95,.14,.52,.2,1.06,.18,1.6,0,.25-.03,.49-.07,.73-.1,.63-.3,1.24-.6,1.8-.46,.85-1.08,1.54-1.88,2.08-.84,.56-1.76,.87-2.76,.94-.05,0-.1,0-.15,.02h-.52s-.04,0-.06,0c-.13-.01-.27-.02-.4-.04-.26-.03-.52-.08-.77-.15-.94-.26-1.76-.72-2.46-1.39-.56-.53-.99-1.15-1.3-1.86-.26-.6-.42-1.24-.46-1.89,0-.04,0-.08-.02-.12v-.51s.01-.05,.01-.07c.02-.25,.04-.49,.09-.74,.2-1.07,.67-2,1.41-2.8,.59-.64,1.28-1.12,2.09-1.45,.61-.24,1.24-.38,1.89-.41,.35-.02,.7,0,1.05,.05,.41,.06,.8,.16,1.19,.3,.55,.2,1.05,.49,1.51,.85,.05,.04,.05,.04,.09,0,.81-.81,1.61-1.61,2.42-2.42,.01-.01,.03-.02,.02-.04-.02,0-.04,0-.06,0-.18,0-.37,0-.55,0-.07,0-.07,0-.07-.07,0-.38,0-.77,0-1.15,0-.02,0-.05,.02-.07ZM1.29,8.26c0,2.49,2.03,4.44,4.43,4.44,2.41,0,4.44-1.95,4.44-4.43,0-2.43-1.97-4.44-4.43-4.44-2.45,0-4.44,1.98-4.45,4.44Z"/></g></svg>