<?xml version="1.0" encoding="UTF-8"?><svg id="Layer_2" xmlns="http://www.w3.org/2000/svg" viewBox="0 0 7.11 14.21"><defs><style>.cls-1{fill:#fff;}</style></defs><g id="Layer_1-2"><path class="cls-1" d="M7.11,5.59v.19s0,.02,0,.04c0,.13-.02,.27-.04,.4-.06,.43-.2,.83-.41,1.21-.53,.92-1.31,1.5-2.34,1.74-.05,.01-.05,.01-.05,.06,0,.46,0,.92,0,1.38q0,.05,.06,.05c.67,0,1.35,0,2.02,0q.05,0,.05,.06c0,.44,0,.88,0,1.32v.03s0,.02-.03,.02h-.04c-.67,0-1.34,0-2.01,0q-.05,0-.06,.05c0,.67,0,1.35,0,2.02,0,.02,0,.04,0,.06h-1.42s0-.04,0-.06c0-.67,0-1.35,0-2.02q0-.05-.06-.05c-.67,0-1.35,0-2.02,0q-.05,0-.05-.06c0-.44,0-.88,0-1.32,0,0,0-.02,0-.03,0-.02,0-.03,.03-.03,.02,0,.04,0,.06,0,.66,0,1.33,0,1.99,0,.03,0,.05,0,.05-.04,0-.47,0-.94,0-1.41,0-.03-.01-.04-.04-.04-.05,0-.09-.02-.14-.03-.77-.2-1.41-.62-1.91-1.24C.23,7.21-.02,6.43,0,5.57c0-.23,.03-.45,.08-.67,.19-.83,.63-1.51,1.3-2.03,.03-.02,.03-.02,0-.05-.15-.12-.3-.25-.43-.39C.34,1.76,.02,.97,0,.06,0,0,0,0,.05,0c.41,0,.83,0,1.24,0,.03,0,.06,0,.09,0,.03,0,.04,0,.04,.03,0,.06,0,.12,.01,.18,.03,.29,.11,.57,.26,.83,.45,.8,1.33,1.22,2.23,1.06,.74-.13,1.26-.56,1.57-1.24,.12-.26,.17-.53,.18-.81,0-.05,0-.05,.05-.05,.44,0,.89,0,1.33,0,.01,0,.03,0,.04,0V.1s0,.02,0,.03c0,.22-.03,.44-.08,.66-.19,.83-.63,1.51-1.3,2.03-.03,.02-.03,.02,0,.05,.53,.41,.92,.93,1.16,1.56,.12,.32,.2,.66,.22,1,0,.05,0,.1,.01,.15Zm-3.55,2.22c1.13,0,2.12-.9,2.13-2.12,0-1.2-.97-2.11-2.09-2.13-1.17-.02-2.16,.92-2.16,2.13,0,1.22,.99,2.14,2.13,2.13Z"/></g></svg>