<?xml version="1.0" encoding="UTF-8"?><svg id="Layer_2" xmlns="http://www.w3.org/2000/svg" viewBox="0 0 11.94 14.04"><defs><style>.cls-1{fill:#fff;}</style></defs><g id="Layer_1-2"><path class="cls-1" d="M0,0S.03,0,.04,0c.44,0,.88,0,1.32,0,.05,0,.05,0,.05,.05,0,.65,.15,1.27,.42,1.87,.21,.46,.5,.88,.85,1.25,.54,.56,1.18,.96,1.93,1.2,.2,.06,.41,.11,.62,.15,.03,0,.04,0,.03-.03,0-.01,0-.02,0-.03V.06q0-.06,.06-.06c.43,0,.87,0,1.3,0q.05,0,.05,.05c0,1.47,0,2.93,0,4.4,0,.06,0,.06,.06,.05,.82-.14,1.54-.48,2.18-1.01,.5-.42,.89-.92,1.17-1.51,.19-.4,.32-.81,.39-1.24,.03-.18,.05-.36,.05-.55,0-.05,0-.1,0-.15,0-.03,0-.04,.04-.04,.17,0,.35,0,.52,0,.27,0,.53,0,.8,0,.05,0,.05,0,.05,.05,0,.47-.06,.93-.17,1.38-.19,.76-.51,1.46-.98,2.1-.52,.71-1.17,1.28-1.93,1.7-.54,.3-1.11,.5-1.71,.63-.14,.03-.28,.05-.43,.07-.03,0-.04,.02-.04,.05,0,.68,0,1.37,0,2.05t.05,.05c.9,0,1.8,0,2.71,0q.06,0,.06,.06c0,.43,0,.87,0,1.3q0,.05-.05,.05c-.9,0-1.8,0-2.69,0-.01,0-.02,0-.04,0-.02,0-.03,0-.03,.03,0,.01,0,.02,0,.04,0,1.48,0,2.96,0,4.44,0,.02,0,.04,0,.06h-1.41s0-.04,0-.06c0-1.48,0-2.96,0-4.44,0-.01,0-.02,0-.04,0-.02,0-.03-.03-.03-.01,0-.02,0-.04,0-.9,0-1.8,0-2.69,0q-.05,0-.05-.05c0-.43,0-.87,0-1.3q0-.06,.06-.06h2.7q.05,0,.05-.05c0-.67,0-1.35,0-2.02q0-.06-.06-.07c-.24-.03-.47-.08-.7-.13-.49-.13-.96-.31-1.41-.56-.7-.39-1.31-.9-1.81-1.53-.44-.56-.77-1.18-.99-1.86C.13,1.36,.04,.87,0,.37c0-.06,0-.11,0-.17V0Z"/></g></svg>