<?xml version="1.0" encoding="UTF-8"?><svg id="Layer_2" xmlns="http://www.w3.org/2000/svg" viewBox="0 0 11.66 14.4"><defs><style>.cls-1{fill:#fff;}</style></defs><g id="Layer_1-2"><g><path class="cls-1" d="M0,.69s.03,0,.04,0c.43,0,.86,0,1.29,0,.05,0,.05,0,.05,.05,0,.64,.14,1.24,.41,1.82,.21,.45,.49,.86,.83,1.22,.53,.55,1.16,.94,1.88,1.17,.27,.09,.55,.14,.84,.17,.23,.03,.45,.03,.68,.02,.52-.02,1.01-.13,1.49-.33,.52-.21,.98-.51,1.38-.89,.52-.49,.9-1.08,1.14-1.75,.11-.3,.18-.61,.22-.92,.02-.17,.03-.34,.03-.51,0-.05,0-.05,.05-.05,.43,0,.86,0,1.29,0,.04,0,.04,0,.04,.05,0,.46-.06,.91-.17,1.35-.18,.75-.5,1.43-.96,2.05-.23,.32-.5,.61-.79,.88-.47,.43-1,.77-1.58,1.03-.38,.17-.77,.29-1.18,.37-.14,.03-.28,.05-.42,.07-.03,0-.04,.01-.04,.05,0,.67,0,1.34,0,2.01,0,.04,0,.04,.05,.04h2.64q.05,0,.05,.05c0,.43,0,.85,0,1.28q0,.05-.05,.05c-.88,0-1.76,0-2.64,0q-.05,0-.05,.05v4.34q0,.06-.06,.06c-.42,0-.84,0-1.26,0q-.06,0-.06-.06c0-1.45,0-2.89,0-4.34,0-.06,0-.06-.06-.06-.87,0-1.75,0-2.62,0-.01,0-.02,0-.04,0-.02,0-.03,0-.03-.03,0,0,0-.01,0-.02,0-.42,0-.85,0-1.27q0-.05,.05-.05h2.64s.05,0,.05-.05c0-.66,0-1.32,0-1.98,0-.06,.01-.06-.06-.07-.22-.03-.44-.07-.65-.12-.6-.15-1.17-.39-1.69-.72-.42-.27-.81-.58-1.15-.95-.36-.38-.66-.81-.91-1.27C.39,2.88,.2,2.31,.09,1.72c-.04-.19-.06-.39-.07-.58,0-.09-.01-.17-.02-.26v-.19Z"/><path class="cls-1" d="M5.9,0s.09,0,.13,.01c.25,.02,.48,.07,.71,.17,.79,.34,1.27,.94,1.45,1.78,.03,.15,.05,.31,.04,.46-.01,.6-.21,1.13-.61,1.58-.38,.43-.86,.69-1.43,.77-.72,.11-1.36-.07-1.92-.54-.44-.37-.71-.84-.81-1.41-.03-.15-.04-.3-.04-.46,.01-.6,.21-1.12,.61-1.57,.28-.32,.62-.54,1.02-.68,.18-.06,.37-.1,.57-.12C5.66,0,5.71,0,5.75,0h.15Zm.95,2.4c0-.57-.45-1.02-1.02-1.03-.57,0-1.03,.45-1.03,1.02,0,.57,.45,1.03,1.02,1.03,.57,0,1.02-.45,1.03-1.02Z"/></g></g></svg>