<?xml version="1.0" encoding="UTF-8"?><svg id="Layer_2" xmlns="http://www.w3.org/2000/svg" viewBox="0 0 9.06 13.94"><defs><style>.cls-1{fill:#fff;}</style></defs><g id="Layer_1-2"><path class="cls-1" d="M0,2.09s.03,0,.05,0c.66,0,1.32,0,1.98,0q.05,0,.05-.05V.05q0-.05,.05-.05c.43,0,.86,0,1.3,0q.05,0,.05,.05c0,.66,0,1.32,0,1.99q0,.05,.05,.05h1.98q.05,0,.05,.05c0,.43,0,.86,0,1.3q0,.05-.05,.05c-.66,0-1.33,0-1.99,0q-.05,0-.05,.05c0,.54,0,1.09,0,1.63v.03s0,.02,.02,0h.02c.44-.33,.92-.53,1.45-.63,.16-.03,.31-.04,.47-.05,.45-.02,.89,.05,1.31,.2,.42,.15,.79,.37,1.12,.66,.37,.32,.65,.71,.86,1.15,.14,.3,.24,.62,.29,.96,.03,.19,.04,.39,.04,.58-.01,.48-.11,.93-.31,1.37-.17,.38-.4,.71-.69,1.01-.18,.18-.36,.36-.53,.55-.28,.3-.54,.61-.75,.96-.24,.39-.39,.8-.45,1.25-.03,.18-.04,.37-.05,.55,0,.05,0,.11,0,.16h-1.4c0-.21,0-.42,.03-.63,.04-.4,.12-.78,.25-1.16,.16-.45,.38-.87,.66-1.26,.23-.33,.5-.63,.77-.92,.15-.16,.31-.32,.47-.48,.32-.33,.53-.72,.59-1.18,.09-.64-.08-1.2-.5-1.69-.31-.36-.71-.59-1.18-.67-.65-.11-1.23,.04-1.73,.47-.38,.32-.61,.73-.7,1.22-.02,.11-.03,.22-.03,.33,0,.03,0,.04-.04,.04-.44,0-.88,0-1.33,0-.03,0-.04,0-.04-.04,0-.16,0-.31,0-.47,0-1.32,0-2.65,0-3.97q0-.05-.05-.05c-.66,0-1.32,0-1.98,0-.02,0-.03,0-.05,0v-1.4Z"/></g></svg>