<?xml version="1.0" encoding="UTF-8"?>
<svg id="Layer_2" data-name="Layer 2" xmlns="http://www.w3.org/2000/svg" viewBox="0 0 14.11 14.47">
  <defs>
    <style>
      .cls-1 {
        fill: #fff;
      }
    </style>
  </defs>
  <g id="Layer_1-2" data-name="Layer 1">
    <g>
      <path class="cls-1" d="m7.05,4.72c1.43,0,2.6,1.16,2.6,2.6s-1.16,2.6-2.6,2.6-2.6-1.16-2.6-2.6,1.16-2.6,2.6-2.6m0-1c-1.99,0-3.6,1.61-3.6,3.6s1.61,3.6,3.6,3.6,3.6-1.61,3.6-3.6-1.61-3.6-3.6-3.6h0Z"/>
      <path class="cls-1" d="m6.32,1.09l.66.59.19.17.25.06,1.45.33.25.06.25-.07.85-.25,1.14.91-.05.88-.02.26.11.23.32.67.32.67.11.23.21.15.72.51v1.46l-.72.51-.21.15-.11.23-.33.69-.31.65-.11.23.02.26.05.88-.63.51-.51.4-.85-.25-.25-.07-.25.06-.23.05-1.22.28-.25.06-.19.17-.66.59-.71-.16-.71-.16-.33-.82-.1-.24-.2-.16-1.16-.93-.2-.16-.26-.04-.87-.14-.63-1.31.43-.77.13-.23v-2.01l-.13-.23-.43-.77.63-1.31.87-.14.26-.04.2-.16.24-.19.92-.73.2-.16.1-.24.33-.82.71-.16.71-.16m.28-1.09c-1.03.24-1.4.32-2.44.56l-.53,1.3c-.41.33-.75.6-1.16.93l-1.39.23c-.46.95-.62,1.3-1.08,2.25l.69,1.23v1.49l-.69,1.23c.46.95.62,1.3,1.08,2.25l1.39.23c.41.33.75.6,1.16.93l.53,1.3c1.03.24,1.4.32,2.44.56l1.04-.94c.52-.12.94-.21,1.45-.33l1.35.4c.83-.66,1.13-.9,1.95-1.56l-.09-1.4c.23-.48.42-.86.65-1.34l1.15-.81v-2.5l-1.15-.81c-.23-.48-.42-.86-.65-1.34l.09-1.4c-.83-.66-1.13-.9-1.95-1.56l-1.35.4c-.52-.12-.94-.21-1.45-.33l-1.04-.94h0Z"/>
    </g>
  </g>
</svg>