<?xml version="1.0" encoding="UTF-8"?><svg id="Layer_2" xmlns="http://www.w3.org/2000/svg" viewBox="0 0 14.16 14.16"><defs><style>.cls-1{fill:#fff;}</style></defs><g id="Layer_1-2"><g><path class="cls-1" d="M7.02,0h.14s.05,0,.08,0c.21,0,.41,.02,.61,.04,.38,.04,.75,.11,1.12,.21,1.43,.4,2.62,1.18,3.57,2.32,.95,1.15,1.48,2.48,1.6,3.97,.03,.38,.03,.76,0,1.14-.03,.37-.09,.73-.18,1.08-.29,1.18-.85,2.23-1.68,3.12-1.3,1.38-2.89,2.13-4.78,2.26-.43,.03-.85,0-1.28-.04-.39-.05-.77-.13-1.15-.24-1.02-.31-1.93-.82-2.72-1.53-1.01-.91-1.7-2.02-2.07-3.33-.15-.52-.23-1.06-.26-1.6,0-.09,0-.17-.02-.26v-.12s0-.06,.01-.1c.01-.21,.02-.43,.05-.64,.04-.39,.12-.77,.22-1.14C.92,2.92,2.59,1.15,4.77,.39c.49-.17,.99-.28,1.5-.34,.22-.03,.44-.04,.67-.04,.03,0,.05,0,.08,0Zm.07,12.87c3.19,0,5.79-2.59,5.79-5.78,0-3.19-2.59-5.79-5.77-5.8-3.22,0-5.8,2.61-5.8,5.78,0,3.18,2.58,5.79,5.79,5.79Z"/><path class="cls-1" d="M7.08,8.88c-.99,0-1.8-.81-1.79-1.8,0-1,.81-1.8,1.8-1.79,.99,0,1.8,.81,1.8,1.8,0,.99-.81,1.8-1.8,1.79Z"/></g></g></svg>