<?xml version="1.0" encoding="UTF-8"?><svg id="Layer_2" xmlns="http://www.w3.org/2000/svg" viewBox="0 0 501.11 110.43"><defs><style>.cls-1{fill:#fff;}</style></defs><g id="Layer_1-2"><g><g><path class="cls-1" d="M16.96,77.25s-.05-.09-.05-.15v-.74c0-.06,.02-.11,.06-.15,.04-.04,.09-.06,.15-.06h.24c.16,0,.32-.04,.47-.11,.15-.08,.41-.24,.78-.48l.37-.24,.98-.64v-4.92h-2.09c-.06,0-.11-.02-.15-.06-.04-.04-.06-.09-.06-.15v-.71c0-.06,.02-.11,.06-.15,.04-.04,.09-.06,.15-.06h2.71c.15,0,.28,.05,.38,.16s.16,.23,.16,.38v7.88c0,.06-.02,.11-.06,.15-.04,.04-.09,.06-.15,.06h-.71c-.06,0-.11-.02-.15-.06-.04-.04-.06-.09-.06-.15v-1.12h-.03l-.95,.66c-.41,.28-.72,.47-.95,.57s-.47,.16-.74,.16h-.21c-.07,0-.12-.02-.16-.06Z"/><path class="cls-1" d="M23.66,77.19s-.06-.09-.06-.15v-.71c0-.06,.02-.11,.06-.15s.09-.06,.15-.06h4.69c0-.39-.07-.7-.22-.92-.14-.23-.37-.46-.68-.69l-.85-.61-.79-.57c-.5-.37-.86-.68-1.1-.93s-.4-.52-.49-.79c-.09-.27-.13-.62-.13-1.04v-.82h-1.01c-.06,0-.11-.02-.15-.06-.04-.04-.06-.09-.06-.15v-.71c0-.06,.02-.11,.06-.15s.09-.06,.15-.06h1.64c.15,0,.28,.05,.38,.16s.16,.23,.16,.38v1.42c0,.29,.05,.53,.15,.73,.1,.2,.24,.38,.43,.55s.51,.43,.97,.78c.58-.19,1.02-.44,1.33-.75,.31-.31,.46-.73,.46-1.25v-.88h-1.01c-.06,0-.11-.02-.15-.06-.04-.04-.06-.09-.06-.15v-.71c0-.06,.02-.11,.06-.15,.04-.04,.09-.06,.15-.06h1.64c.15,0,.28,.05,.38,.16,.1,.1,.16,.23,.16,.38v1.06c0,.79-.14,1.43-.42,1.91-.28,.48-.79,.88-1.53,1.2,.47,.33,.82,.62,1.07,.89s.41,.55,.51,.83c.09,.29,.14,.65,.14,1.07v.58c0,.15-.05,.28-.16,.38-.1,.1-.23,.16-.38,.16h-5.32c-.06,0-.11-.02-.15-.06Z"/><path class="cls-1" d="M33.2,73.45s-.06-.09-.06-.15v-3.55h-1.24c-.06,0-.11-.02-.15-.06-.04-.04-.06-.09-.06-.15v-.71c0-.06,.02-.11,.06-.15,.04-.04,.09-.06,.15-.06h1.86c.15,0,.28,.05,.38,.16,.1,.1,.16,.23,.16,.38v4.14c0,.06-.02,.11-.06,.15-.04,.04-.09,.06-.15,.06h-.75c-.06,0-.11-.02-.15-.06Z"/><path class="cls-1" d="M37.59,73.45s-.06-.09-.06-.15v-3.55h-1.24c-.06,0-.11-.02-.15-.06-.04-.04-.06-.09-.06-.15v-.71c0-.06,.02-.11,.06-.15,.04-.04,.09-.06,.15-.06h1.86c.15,0,.28,.05,.38,.16,.1,.1,.16,.23,.16,.38v4.14c0,.06-.02,.11-.06,.15-.04,.04-.09,.06-.15,.06h-.75c-.06,0-.11-.02-.15-.06Z"/><path class="cls-1" d="M41.57,77.19s-.06-.09-.06-.15v-7.29h-.75c-.06,0-.11-.02-.15-.06-.04-.04-.06-.09-.06-.15v-.71c0-.06,.02-.11,.06-.15,.04-.04,.09-.06,.15-.06h1.48c.11,0,.2,.03,.27,.1,.07,.07,.1,.16,.1,.27v.67c.28-.37,.62-.66,1.04-.87,.41-.21,.87-.32,1.38-.32,.55,0,1.03,.12,1.45,.36s.75,.56,.98,.96c.23,.4,.34,.83,.34,1.29v4.33c0,.52-.2,.95-.56,1.3-.36,.35-.8,.53-1.3,.53h-1.47c-.06,0-.11-.02-.15-.06-.04-.04-.06-.09-.06-.15v-.71c0-.06,.02-.11,.06-.15s.09-.06,.15-.06h1.46c.2,0,.37-.07,.51-.21,.14-.14,.21-.31,.21-.51v-4.04c0-.54-.17-.97-.5-1.3s-.77-.5-1.3-.5c-.64,0-1.15,.2-1.56,.6s-.6,.92-.6,1.56v5.32c0,.06-.02,.11-.06,.15s-.09,.06-.15,.06h-.75c-.06,0-.11-.02-.15-.06Z"/><path class="cls-1" d="M55.46,77.19s-.06-.09-.06-.15v-1.01c0-.58,.08-1.09,.25-1.54s.36-.83,.59-1.14,.53-.67,.91-1.07c.42-.44,.72-.81,.92-1.12,.19-.31,.29-.67,.29-1.07v-.33h-4.07c-.22,0-.4-.07-.54-.21-.14-.14-.21-.32-.21-.54v-2.41c0-.06,.02-.11,.06-.15s.09-.06,.15-.06h.75c.06,0,.11,.02,.15,.06,.04,.04,.06,.09,.06,.15v2.03h4.25c.15,0,.28,.05,.38,.16,.1,.1,.16,.23,.16,.38v.73c0,.49-.07,.92-.21,1.3-.14,.38-.31,.7-.51,.97-.2,.27-.46,.58-.79,.92-.32,.34-.57,.63-.75,.86s-.33,.52-.45,.84c-.12,.32-.19,.69-.19,1.09v1.16c0,.06-.02,.11-.06,.15s-.09,.06-.15,.06h-.78c-.06,0-.11-.02-.15-.06Z"/><path class="cls-1" d="M63.7,77c-.47-.28-.85-.65-1.12-1.12s-.42-.99-.42-1.56v-4.56h-.91c-.06,0-.11-.02-.15-.06-.04-.04-.06-.09-.06-.15v-.71c0-.06,.02-.11,.06-.15,.04-.04,.09-.06,.15-.06h6.56c.15,0,.28,.05,.38,.16s.16,.23,.16,.38v5.15c0,.57-.14,1.09-.42,1.56s-.65,.85-1.12,1.12c-.47,.28-.99,.42-1.54,.42s-1.08-.14-1.56-.42Zm2.52-.95c.29-.17,.53-.41,.7-.71s.26-.62,.26-.97v-4.62h-3.86v4.62c0,.35,.09,.67,.26,.97s.41,.53,.71,.71c.3,.17,.62,.26,.97,.26s.67-.09,.96-.26Z"/><path class="cls-1" d="M73.75,77.19s-.06-.09-.06-.15v-.98c0-.58,.07-1.08,.22-1.53,.14-.44,.32-.81,.52-1.12,.2-.3,.47-.65,.8-1.05,.37-.44,.64-.81,.82-1.13,.18-.32,.27-.68,.27-1.1v-.37h-5.53c-.06,0-.11-.02-.15-.06-.04-.04-.06-.09-.06-.15v-.71c0-.06,.02-.11,.06-.15,.04-.04,.09-.06,.15-.06h6.15c.15,0,.28,.05,.38,.16s.16,.23,.16,.38v.75c0,.49-.06,.92-.19,1.3-.12,.38-.28,.7-.46,.97-.18,.27-.42,.58-.71,.94-.29,.36-.51,.66-.68,.9s-.3,.53-.42,.87c-.12,.34-.17,.72-.17,1.15v1.01c0,.06-.02,.11-.06,.15s-.09,.06-.15,.06h-.75c-.06,0-.11-.02-.15-.06Zm-3.04,2.16s-.06-.09-.06-.15v-6.99c0-.06,.02-.11,.06-.15,.04-.04,.09-.06,.15-.06h.73c.06,0,.11,.02,.15,.06,.04,.04,.06,.09,.06,.15v6.99c0,.06-.02,.11-.06,.15-.04,.04-.09,.06-.15,.06h-.73c-.06,0-.11-.02-.15-.06Z"/><path class="cls-1" d="M80.62,73.45s-.06-.09-.06-.15v-3.55h-1.24c-.06,0-.11-.02-.15-.06-.04-.04-.06-.09-.06-.15v-.71c0-.06,.02-.11,.06-.15,.04-.04,.09-.06,.15-.06h1.86c.15,0,.28,.05,.38,.16,.1,.1,.16,.23,.16,.38v4.14c0,.06-.02,.11-.06,.15-.04,.04-.09,.06-.15,.06h-.75c-.06,0-.11-.02-.15-.06Z"/><path class="cls-1" d="M84.61,77.19s-.06-.09-.06-.15v-.71c0-.06,.02-.11,.06-.15,.04-.04,.09-.06,.15-.06h3.98c.2,0,.37-.07,.51-.21,.14-.14,.21-.31,.21-.51v-5.65h-3.59v2.62h1.34c.06,0,.11,.02,.15,.06s.06,.09,.06,.15v.71c0,.06-.02,.11-.06,.15s-.09,.06-.15,.06h-1.97c-.24,0-.39-.04-.45-.13s-.09-.22-.09-.41v-3.22h-.91c-.06,0-.11-.02-.15-.06-.04-.04-.06-.09-.06-.15v-.71c0-.06,.02-.11,.06-.15,.04-.04,.09-.06,.15-.06h6.29c.15,0,.28,.05,.38,.16,.1,.1,.16,.23,.16,.38v6.23c0,.34-.08,.65-.25,.93-.17,.28-.4,.51-.69,.68s-.6,.25-.94,.25h-3.98c-.06,0-.11-.02-.15-.06Z"/><path class="cls-1" d="M98.35,77.19s-.06-.09-.06-.15v-1.01c0-.58,.08-1.09,.25-1.54s.36-.83,.59-1.14,.53-.67,.91-1.07c.42-.44,.72-.81,.92-1.12,.19-.31,.29-.67,.29-1.07v-.33h-4.07c-.22,0-.4-.07-.54-.21-.14-.14-.21-.32-.21-.54v-2.41c0-.06,.02-.11,.06-.15s.09-.06,.15-.06h.75c.06,0,.11,.02,.15,.06,.04,.04,.06,.09,.06,.15v2.03h4.25c.15,0,.28,.05,.38,.16,.1,.1,.16,.23,.16,.38v.73c0,.49-.07,.92-.21,1.3-.14,.38-.31,.7-.51,.97-.2,.27-.46,.58-.79,.92-.32,.34-.57,.63-.75,.86s-.33,.52-.45,.84c-.12,.32-.19,.69-.19,1.09v1.16c0,.06-.02,.11-.06,.15s-.09,.06-.15,.06h-.78c-.06,0-.11-.02-.15-.06Z"/><path class="cls-1" d="M103.99,77.19s-.06-.09-.06-.15v-.71c0-.06,.02-.11,.06-.15s.09-.06,.15-.06h3.61c.2,0,.37-.07,.51-.21,.14-.14,.22-.3,.22-.49v-5.66h-4.2c-.06,0-.11-.02-.15-.06-.04-.04-.06-.09-.06-.15v-.71c0-.06,.02-.11,.06-.15,.04-.04,.09-.06,.15-.06h4.83c.15,0,.28,.05,.38,.16,.1,.1,.16,.23,.16,.38v6.26c0,.33-.08,.63-.25,.92s-.4,.51-.69,.67-.61,.25-.95,.25h-3.61c-.06,0-.11-.02-.15-.06Z"/><path class="cls-1" d="M117.03,77.19s-.06-.09-.06-.15v-7.29h-1.24c-.06,0-.11-.02-.15-.06-.04-.04-.06-.09-.06-.15v-.71c0-.06,.02-.11,.06-.15,.04-.04,.09-.06,.15-.06h1.86c.15,0,.28,.05,.38,.16,.1,.1,.16,.23,.16,.38v7.88c0,.06-.02,.11-.06,.15-.04,.04-.09,.06-.15,.06h-.75c-.06,0-.11-.02-.15-.06Z"/><path class="cls-1" d="M120.13,77.19s-.06-.09-.06-.15v-.71c0-.06,.02-.11,.06-.15,.04-.04,.09-.06,.15-.06h4.14v-6.36h-3.84c-.06,0-.11-.02-.15-.06-.04-.04-.06-.09-.06-.15v-.71c0-.06,.02-.11,.06-.15,.04-.04,.09-.06,.15-.06h4.47c.15,0,.28,.05,.38,.16s.16,.23,.16,.38v6.96h1.06c.06,0,.11,.02,.15,.06,.04,.04,.06,.09,.06,.15v.71c0,.06-.02,.11-.06,.15s-.09,.06-.15,.06h-6.36c-.06,0-.11-.02-.15-.06Z"/><path class="cls-1" d="M128.96,76.71c-.36-.36-.54-.8-.54-1.32v-6.23c0-.15,.05-.28,.16-.38,.1-.1,.23-.16,.38-.16h1.34c.06,0,.11,.02,.15,.06,.04,.04,.06,.09,.06,.15v.69c0,.06-.02,.11-.06,.15-.04,.04-.09,.06-.15,.06h-.79v5.68c0,.2,.07,.37,.21,.51,.14,.14,.31,.21,.51,.21h1.65v-7.29c0-.06,.02-.11,.06-.15,.04-.04,.09-.06,.15-.06h.67c.06,0,.11,.02,.15,.06s.06,.09,.06,.15v7.29h1.65c.2,0,.37-.07,.51-.21,.14-.14,.22-.31,.22-.51v-5.68h-.79c-.06,0-.11-.02-.15-.06-.04-.04-.06-.09-.06-.15v-.69c0-.06,.02-.11,.06-.15,.04-.04,.09-.06,.15-.06h1.34c.15,0,.28,.05,.38,.16s.16,.23,.16,.38v6.23c0,.52-.18,.96-.55,1.32-.37,.36-.81,.54-1.33,.54h-4.28c-.52,0-.96-.18-1.32-.54Z"/><path class="cls-1" d="M34.32,94.98c-.1-.1-.16-.23-.16-.38v-6.96h-.95c-.06,0-.11-.02-.15-.06-.04-.04-.06-.09-.06-.15v-.71c0-.06,.02-.11,.06-.15,.04-.04,.09-.06,.15-.06h6.35c.15,0,.28,.05,.38,.16,.1,.1,.16,.23,.16,.38v7.55c0,.15-.05,.28-.16,.38-.1,.1-.23,.16-.38,.16h-4.86c-.15,0-.28-.05-.38-.16Zm4.61-.98v-6.36h-3.61v6.36h3.61Z"/><path class="cls-1" d="M43.61,91.33s-.06-.09-.06-.15v-3.55h-1.24c-.06,0-.11-.02-.15-.06-.04-.04-.06-.09-.06-.15v-.71c0-.06,.02-.11,.06-.15,.04-.04,.09-.06,.15-.06h1.86c.15,0,.28,.05,.38,.16,.1,.1,.16,.23,.16,.38v4.14c0,.06-.02,.11-.06,.15-.04,.04-.09,.06-.15,.06h-.75c-.06,0-.11-.02-.15-.06Z"/><path class="cls-1" d="M51.34,95.07s-.06-.09-.06-.15v-7.29h-4.43c-.06,0-.11-.02-.15-.06-.04-.04-.06-.09-.06-.15v-.71c0-.06,.02-.11,.06-.15,.04-.04,.09-.06,.15-.06h5.05c.15,0,.28,.05,.38,.16,.1,.1,.16,.23,.16,.38v7.88c0,.06-.02,.11-.06,.15-.04,.04-.09,.06-.15,.06h-.75c-.06,0-.11-.02-.15-.06Z"/><path class="cls-1" d="M55.13,94.98c-.1-.1-.16-.23-.16-.38v-7.88c0-.06,.02-.11,.06-.15,.04-.04,.09-.06,.15-.06h.75c.06,0,.11,.02,.15,.06s.06,.09,.06,.15v7.3h2.53c.56,0,1.02-.19,1.4-.57,.38-.38,.57-.85,.57-1.39v-3.7c0-.29-.08-.51-.25-.66-.16-.15-.36-.23-.6-.23s-.46,.08-.62,.25c-.16,.17-.25,.37-.25,.61v2.26c0,.06-.02,.11-.06,.15s-.09,.06-.15,.06h-.75c-.06,0-.11-.02-.15-.06-.04-.04-.06-.09-.06-.15v-2.22c0-.37,.09-.71,.28-1.01,.18-.31,.43-.55,.75-.73,.32-.18,.67-.27,1.06-.27,.56,0,1.02,.18,1.38,.54,.37,.36,.55,.85,.55,1.47v3.8c0,.54-.13,1.03-.4,1.48s-.63,.81-1.08,1.08-.95,.4-1.48,.4h-3.31c-.15,0-.28-.05-.38-.16Z"/><path class="cls-1" d="M64.44,95.07s-.06-.09-.06-.15v-7.29h-.75c-.06,0-.11-.02-.15-.06-.04-.04-.06-.09-.06-.15v-.71c0-.06,.02-.11,.06-.15,.04-.04,.09-.06,.15-.06h1.48c.11,0,.2,.03,.27,.1,.07,.07,.1,.16,.1,.27v.67c.28-.37,.62-.66,1.04-.87,.41-.21,.87-.32,1.38-.32,.55,0,1.03,.12,1.45,.36s.75,.56,.98,.96c.23,.4,.34,.83,.34,1.29v4.33c0,.52-.2,.95-.56,1.3-.36,.35-.8,.53-1.3,.53h-1.47c-.06,0-.11-.02-.15-.06-.04-.04-.06-.09-.06-.15v-.71c0-.06,.02-.11,.06-.15s.09-.06,.15-.06h1.46c.2,0,.37-.07,.51-.21,.14-.14,.21-.31,.21-.51v-4.04c0-.54-.17-.97-.5-1.3s-.77-.5-1.3-.5c-.64,0-1.15,.2-1.56,.6s-.6,.92-.6,1.56v5.32c0,.06-.02,.11-.06,.15s-.09,.06-.15,.06h-.75c-.06,0-.11-.02-.15-.06Z"/><path class="cls-1" d="M73.85,95.07s-.06-.09-.06-.15v-7.29h-1.24c-.06,0-.11-.02-.15-.06-.04-.04-.06-.09-.06-.15v-.71c0-.06,.02-.11,.06-.15,.04-.04,.09-.06,.15-.06h1.86c.15,0,.28,.05,.38,.16,.1,.1,.16,.23,.16,.38v7.88c0,.06-.02,.11-.06,.15-.04,.04-.09,.06-.15,.06h-.75c-.06,0-.11-.02-.15-.06Z"/><path class="cls-1" d="M78.81,95.07s-.06-.09-.06-.15v-1.01c0-.58,.08-1.09,.25-1.54s.36-.83,.59-1.14,.53-.67,.91-1.07c.42-.44,.72-.81,.92-1.12,.19-.31,.29-.67,.29-1.07v-.33h-4.07c-.22,0-.4-.07-.54-.21-.14-.14-.21-.32-.21-.54v-2.41c0-.06,.02-.11,.06-.15s.09-.06,.15-.06h.75c.06,0,.11,.02,.15,.06,.04,.04,.06,.09,.06,.15v2.03h4.25c.15,0,.28,.05,.38,.16,.1,.1,.16,.23,.16,.38v.73c0,.49-.07,.92-.21,1.3-.14,.38-.31,.7-.51,.97-.2,.27-.46,.58-.79,.92-.32,.34-.57,.63-.75,.86s-.33,.52-.45,.84c-.12,.32-.19,.69-.19,1.09v1.16c0,.06-.02,.11-.06,.15s-.09,.06-.15,.06h-.78c-.06,0-.11-.02-.15-.06Z"/><path class="cls-1" d="M85.98,91.33s-.06-.09-.06-.15v-3.55h-1.24c-.06,0-.11-.02-.15-.06-.04-.04-.06-.09-.06-.15v-.71c0-.06,.02-.11,.06-.15,.04-.04,.09-.06,.15-.06h1.86c.15,0,.28,.05,.38,.16,.1,.1,.16,.23,.16,.38v4.14c0,.06-.02,.11-.06,.15-.04,.04-.09,.06-.15,.06h-.75c-.06,0-.11-.02-.15-.06Z"/><path class="cls-1" d="M92.49,95.07s-.06-.09-.06-.15v-.98c0-.58,.07-1.08,.22-1.53,.14-.44,.32-.81,.52-1.12,.2-.3,.47-.65,.8-1.05,.37-.44,.64-.81,.82-1.13,.18-.32,.27-.68,.27-1.1v-.37h-5.53c-.06,0-.11-.02-.15-.06-.04-.04-.06-.09-.06-.15v-.71c0-.06,.02-.11,.06-.15,.04-.04,.09-.06,.15-.06h6.15c.15,0,.28,.05,.38,.16s.16,.23,.16,.38v.75c0,.49-.06,.92-.19,1.3-.12,.38-.28,.7-.46,.97-.18,.27-.42,.58-.71,.94-.29,.36-.51,.66-.68,.9s-.3,.53-.42,.87c-.12,.34-.17,.72-.17,1.15v1.01c0,.06-.02,.11-.06,.15s-.09,.06-.15,.06h-.75c-.06,0-.11-.02-.15-.06Zm-3.04,2.16s-.06-.09-.06-.15v-6.99c0-.06,.02-.11,.06-.15,.04-.04,.09-.06,.15-.06h.73c.06,0,.11,.02,.15,.06,.04,.04,.06,.09,.06,.15v6.99c0,.06-.02,.11-.06,.15-.04,.04-.09,.06-.15,.06h-.73c-.06,0-.11-.02-.15-.06Z"/><path class="cls-1" d="M101.71,95.07s-.06-.09-.06-.15v-.67c0-.06,.02-.11,.06-.15s.09-.06,.15-.06h1.79v-7.72h-1.33c-.06,0-.11-.02-.15-.06-.04-.04-.06-.09-.06-.15v-.48l2.04-1.06h.43c.06,0,.11,.02,.15,.06s.06,.09,.06,.15v9.25h1.79c.06,0,.11,.02,.15,.06,.04,.04,.06,.09,.06,.15v.67c0,.06-.02,.11-.06,.15s-.09,.06-.15,.06h-4.72c-.06,0-.11-.02-.15-.06Z"/><path class="cls-1" d="M108.19,96.47c-.04-.07-.06-.16-.04-.27l.7-2.46c.04-.1,.11-.15,.21-.15h1.01c.11,0,.19,.04,.24,.11,.05,.07,.05,.16,.01,.25l-1.37,2.62h-.55c-.1,0-.17-.04-.22-.1Z"/><path class="cls-1" d="M113.38,93.95c-.58-.92-.86-2.25-.86-4s.29-3.07,.86-3.99c.58-.92,1.44-1.38,2.61-1.38s2.03,.46,2.6,1.37c.57,.91,.86,2.25,.86,3.99,0,3.59-1.15,5.38-3.46,5.38-1.16,0-2.03-.46-2.61-1.38Zm4.36-.89c.3-.73,.45-1.77,.45-3.11s-.15-2.37-.45-3.1c-.3-.72-.89-1.09-1.77-1.09-.79,0-1.36,.34-1.7,1.01-.34,.68-.51,1.75-.51,3.23,0,1.31,.15,2.33,.46,3.05,.31,.73,.89,1.09,1.76,1.09s1.45-.37,1.75-1.09Z"/><path class="cls-1" d="M121.72,93.95c-.58-.92-.86-2.25-.86-4s.29-3.07,.86-3.99c.58-.92,1.44-1.38,2.61-1.38s2.03,.46,2.6,1.37c.57,.91,.86,2.25,.86,3.99,0,3.59-1.15,5.38-3.46,5.38-1.16,0-2.03-.46-2.61-1.38Zm4.36-.89c.3-.73,.45-1.77,.45-3.11s-.15-2.37-.45-3.1c-.3-.72-.89-1.09-1.77-1.09-.79,0-1.36,.34-1.7,1.01-.34,.68-.51,1.75-.51,3.23,0,1.31,.15,2.33,.46,3.05,.31,.73,.89,1.09,1.76,1.09s1.45-.37,1.75-1.09Z"/><path class="cls-1" d="M130.59,93.95c-.58-.92-.86-2.25-.86-4s.29-3.07,.86-3.99c.58-.92,1.44-1.38,2.61-1.38s2.03,.46,2.6,1.37c.57,.91,.86,2.25,.86,3.99,0,3.59-1.15,5.38-3.46,5.38-1.16,0-2.03-.46-2.61-1.38Zm4.36-.89c.3-.73,.45-1.77,.45-3.11s-.15-2.37-.45-3.1c-.3-.72-.89-1.09-1.77-1.09-.79,0-1.36,.34-1.7,1.01-.34,.68-.51,1.75-.51,3.23,0,1.31,.15,2.33,.46,3.05,.31,.73,.89,1.09,1.76,1.09s1.45-.37,1.75-1.09Z"/></g><g><path class="cls-1" d="M28.86,37.59c-1.13-1.13-1.69-2.5-1.69-4.1V14.11c0-.46,.16-.86,.49-1.18,.32-.32,.72-.49,1.18-.49h4.17c.19,0,.34,.06,.46,.19,.12,.12,.19,.28,.19,.46v2.13c0,.19-.06,.34-.19,.46-.12,.12-.28,.18-.46,.18h-2.46v17.66c0,.62,.21,1.14,.65,1.58,.43,.43,.96,.65,1.58,.65h5.14V13.09c0-.19,.06-.34,.19-.46,.12-.12,.28-.19,.46-.19h2.09c.19,0,.34,.06,.46,.19,.12,.12,.19,.28,.19,.46v22.67h5.14c.62,0,1.15-.22,1.6-.65,.45-.43,.67-.96,.67-1.58V15.88h-2.46c-.19,0-.34-.06-.46-.18-.12-.12-.19-.28-.19-.46v-2.13c0-.19,.06-.34,.19-.46,.12-.12,.28-.19,.46-.19h4.17c.46,0,.86,.16,1.18,.49,.32,.33,.49,.72,.49,1.18v19.38c0,1.61-.57,2.97-1.71,4.1s-2.52,1.69-4.12,1.69h-13.3c-1.61,0-2.97-.56-4.1-1.69Z"/><path class="cls-1" d="M84.73,39.1c-.12-.12-.19-.28-.19-.46V15.97h-2.32c-.19,0-.34-.06-.46-.19-.12-.12-.19-.28-.19-.46v-2.22c0-.19,.06-.34,.19-.46,.12-.12,.28-.19,.46-.19h4.59c.34,0,.62,.11,.83,.32,.21,.22,.32,.5,.32,.83v2.09c.87-1.14,1.94-2.05,3.22-2.71,1.28-.66,2.71-1,4.29-1,1.7,0,3.21,.37,4.52,1.11,1.31,.74,2.33,1.74,3.04,2.99s1.07,2.59,1.07,4.01v13.49c-.03,1.61-.61,2.96-1.74,4.06-1.13,1.1-2.48,1.65-4.06,1.65h-4.59c-.19,0-.34-.06-.46-.19-.12-.12-.19-.28-.19-.46v-2.22c0-.19,.06-.34,.19-.46,.12-.12,.28-.19,.46-.19h4.54c.62,0,1.14-.22,1.58-.65,.43-.43,.65-.96,.65-1.58v-12.56c0-1.67-.52-3.02-1.55-4.06-1.04-1.03-2.39-1.55-4.06-1.55-1.98,0-3.59,.63-4.84,1.88-1.25,1.25-1.88,2.87-1.88,4.84v16.55c0,.19-.06,.34-.19,.46-.12,.12-.28,.19-.46,.19h-2.32c-.19,0-.34-.06-.46-.19Z"/><path class="cls-1" d="M136.21,37.59c-1.13-1.13-1.69-2.5-1.69-4.1V14.11c0-.46,.16-.86,.49-1.18,.32-.32,.72-.49,1.18-.49h4.17c.19,0,.34,.06,.46,.19,.12,.12,.19,.28,.19,.46v2.13c0,.19-.06,.34-.19,.46-.12,.12-.28,.18-.46,.18h-2.46v17.66c0,.62,.21,1.14,.65,1.58,.43,.43,.96,.65,1.58,.65h5.14V13.09c0-.19,.06-.34,.19-.46,.12-.12,.28-.19,.46-.19h2.09c.19,0,.34,.06,.46,.19,.12,.12,.19,.28,.19,.46v22.67h5.14c.62,0,1.15-.22,1.6-.65,.45-.43,.67-.96,.67-1.58V15.88h-2.46c-.19,0-.34-.06-.46-.18-.12-.12-.19-.28-.19-.46v-2.13c0-.19,.06-.34,.19-.46,.12-.12,.28-.19,.46-.19h4.17c.46,0,.86,.16,1.18,.49,.32,.33,.49,.72,.49,1.18v19.38c0,1.61-.57,2.97-1.71,4.1s-2.52,1.69-4.12,1.69h-13.3c-1.61,0-2.97-.56-4.1-1.69Z"/><path class="cls-1" d="M206.92,39.1c-.12-.12-.19-.28-.19-.46V15.97l-15.53-.05c-.19,0-.34-.06-.46-.19-.12-.12-.19-.28-.19-.46v-2.18c0-.19,.06-.34,.19-.46,.12-.12,.28-.19,.46-.19h17.47c.46,0,.86,.16,1.18,.49,.32,.33,.49,.72,.49,1.18v24.52c0,.19-.06,.34-.19,.46-.12,.12-.28,.19-.46,.19h-2.32c-.19,0-.34-.06-.46-.19Zm-16.18,0c-.12-.12-.19-.28-.19-.46v-13.91c0-.19,.06-.34,.19-.46,.12-.12,.28-.18,.46-.18h2.32c.19,0,.34,.06,.46,.18,.12,.12,.19,.28,.19,.46v13.91c0,.19-.06,.34-.19,.46-.12,.12-.28,.19-.46,.19h-2.32c-.19,0-.34-.06-.46-.19Z"/><path class="cls-1" d="M276.44,39.1c-.12-.12-.18-.28-.18-.46v-2.22c0-.19,.06-.34,.18-.46,.12-.12,.28-.19,.46-.19h3.75V15.97h-3.75c-.19,0-.34-.06-.46-.19-.12-.12-.18-.28-.18-.46v-2.22c0-.19,.06-.34,.18-.46,.12-.12,.28-.19,.46-.19h20.95c.46,0,.86,.16,1.18,.49,.32,.33,.49,.72,.49,1.18v24.52c0,.19-.06,.34-.19,.46-.12,.12-.28,.19-.46,.19h-2.32c-.19,0-.34-.06-.46-.19-.12-.12-.19-.28-.19-.46V15.97h-11.63v21.65c0,.46-.16,.86-.49,1.18-.32,.32-.72,.49-1.18,.49h-5.7c-.19,0-.34-.06-.46-.19Z"/><path class="cls-1" d="M329.89,39.1c-.12-.12-.19-.28-.19-.46v-2.22c0-.19,.06-.34,.19-.46,.12-.12,.28-.19,.46-.19h11.22c.62,0,1.15-.22,1.6-.65,.45-.43,.67-.94,.67-1.53V15.97h-13.07c-.19,0-.34-.06-.46-.19-.12-.12-.19-.28-.19-.46v-2.22c0-.19,.06-.34,.19-.46,.12-.12,.28-.19,.46-.19h15.02c.46,0,.86,.16,1.18,.49,.32,.33,.49,.72,.49,1.18v19.47c0,1.02-.26,1.97-.79,2.85-.53,.88-1.24,1.58-2.16,2.09s-1.89,.76-2.94,.76h-11.22c-.19,0-.34-.06-.46-.19Z"/><path class="cls-1" d="M391.3,39.1c-.12-.12-.19-.28-.19-.46V15.97h-13.77c-.19,0-.34-.06-.46-.19-.12-.12-.19-.28-.19-.46v-2.22c0-.19,.06-.34,.19-.46,.12-.12,.28-.19,.46-.19h15.71c.46,0,.86,.16,1.18,.49,.32,.33,.49,.72,.49,1.18v24.52c0,.19-.06,.34-.19,.46-.12,.12-.28,.19-.46,.19h-2.32c-.19,0-.34-.06-.46-.19Z"/><path class="cls-1" d="M424.54,39.1c-.12-.12-.19-.28-.19-.46v-2.22c0-.19,.06-.34,.19-.46,.12-.12,.28-.19,.46-.19h4.22V15.97h-2.88c-.19,0-.34-.06-.46-.19-.12-.12-.19-.28-.19-.46v-2.22c0-.19,.06-.34,.19-.46,.12-.12,.28-.19,.46-.19h4.82c.46,0,.86,.16,1.18,.49,.32,.33,.49,.72,.49,1.18v21.65h3.71c1.7,0,3.12-.54,4.27-1.62,1.14-1.08,1.71-2.47,1.71-4.17V15.97h-2.46c-.19,0-.34-.06-.46-.19-.12-.12-.19-.28-.19-.46v-2.22c0-.19,.06-.34,.19-.46,.12-.12,.28-.19,.46-.19h4.36c.46,0,.86,.16,1.18,.49,.32,.33,.49,.72,.49,1.18v15.95c0,1.73-.43,3.3-1.3,4.7-.87,1.41-2.01,2.51-3.43,3.31-1.42,.8-2.92,1.21-4.5,1.21h-11.87c-.19,0-.34-.06-.46-.19Z"/><path class="cls-1" d="M478.49,39.1c-.12-.12-.19-.28-.19-.46V15.97h-2.32c-.19,0-.34-.06-.46-.19-.12-.12-.19-.28-.19-.46v-2.22c0-.19,.06-.34,.19-.46,.12-.12,.28-.19,.46-.19h4.59c.34,0,.62,.11,.83,.32,.22,.22,.32,.5,.32,.83v2.09c.87-1.14,1.94-2.05,3.22-2.71,1.28-.66,2.71-1,4.29-1,1.7,0,3.21,.37,4.52,1.11,1.31,.74,2.32,1.74,3.04,2.99s1.07,2.59,1.07,4.01v13.49c-.03,1.61-.61,2.96-1.74,4.06-1.13,1.1-2.48,1.65-4.05,1.65h-4.59c-.19,0-.34-.06-.46-.19-.12-.12-.19-.28-.19-.46v-2.22c0-.19,.06-.34,.19-.46,.12-.12,.28-.19,.46-.19h4.54c.62,0,1.14-.22,1.58-.65,.43-.43,.65-.96,.65-1.58v-12.56c0-1.67-.52-3.02-1.55-4.06-1.04-1.03-2.39-1.55-4.05-1.55-1.98,0-3.59,.63-4.84,1.88-1.25,1.25-1.88,2.87-1.88,4.84v16.55c0,.19-.06,.34-.19,.46-.12,.12-.28,.19-.46,.19h-2.32c-.18,0-.34-.06-.46-.19Z"/><path class="cls-1" d="M174.65,94.72c-.12-.12-.19-.28-.19-.46v-3.15c0-1.79,.26-3.39,.77-4.8,.51-1.41,1.12-2.59,1.83-3.55,.71-.96,1.65-2.07,2.83-3.34,1.3-1.36,2.25-2.53,2.85-3.5,.6-.97,.9-2.08,.9-3.31v-1.02h-12.65c-.68,0-1.24-.22-1.67-.65-.43-.43-.65-.99-.65-1.67v-7.51c0-.19,.06-.34,.19-.46,.12-.12,.28-.19,.46-.19h2.32c.18,0,.34,.06,.46,.19,.12,.12,.19,.28,.19,.46v6.3h13.21c.46,0,.86,.16,1.18,.49,.32,.33,.49,.72,.49,1.18v2.27c0,1.51-.22,2.86-.65,4.03-.43,1.17-.96,2.18-1.58,3.01-.62,.83-1.44,1.79-2.46,2.87-.99,1.05-1.76,1.95-2.32,2.69-.55,.74-1.03,1.62-1.41,2.62s-.58,2.14-.58,3.41v3.62c0,.19-.06,.34-.19,.46-.12,.12-.28,.19-.46,.19h-2.41c-.18,0-.34-.06-.46-.19Z"/><path class="cls-1" d="M220.4,83.09c-.12-.12-.19-.28-.19-.46v-11.03h-3.85c-.19,0-.34-.06-.46-.19-.12-.12-.19-.28-.19-.46v-2.22c0-.19,.06-.34,.19-.46,.12-.12,.28-.19,.46-.19h5.79c.46,0,.86,.16,1.18,.49,.32,.33,.49,.72,.49,1.18v12.89c0,.19-.06,.34-.19,.46-.12,.12-.28,.18-.46,.18h-2.32c-.19,0-.34-.06-.46-.18Z"/><path class="cls-1" d="M257.53,83.09c-.12-.12-.19-.28-.19-.46v-11.03h-3.85c-.19,0-.34-.06-.46-.19-.12-.12-.19-.28-.19-.46v-2.22c0-.19,.06-.34,.19-.46,.12-.12,.28-.19,.46-.19h5.79c.46,0,.86,.16,1.18,.49,.32,.33,.49,.72,.49,1.18v12.89c0,.19-.06,.34-.19,.46-.12,.12-.28,.18-.46,.18h-2.32c-.19,0-.34-.06-.46-.18Z"/><path class="cls-1" d="M301.24,94.72c-.12-.12-.19-.28-.19-.46v-3.06c0-1.79,.22-3.38,.67-4.75,.45-1.38,.99-2.53,1.62-3.48s1.46-2.03,2.48-3.27c1.14-1.36,1.99-2.53,2.55-3.52,.56-.99,.83-2.13,.83-3.43v-1.16h-17.2c-.19,0-.34-.06-.46-.19-.12-.12-.19-.28-.19-.46v-2.22c0-.19,.06-.34,.19-.46,.12-.12,.28-.19,.46-.19h19.14c.46,0,.86,.16,1.18,.49,.32,.33,.49,.72,.49,1.18v2.32c0,1.51-.19,2.86-.58,4.03-.39,1.17-.86,2.18-1.41,3.01-.56,.83-1.3,1.81-2.22,2.92-.9,1.11-1.6,2.05-2.11,2.8-.51,.76-.94,1.66-1.3,2.71-.36,1.05-.53,2.24-.53,3.57v3.15c0,.19-.06,.34-.18,.46-.12,.12-.28,.19-.46,.19h-2.32c-.19,0-.34-.06-.46-.19Zm-9.46,6.72c-.12-.12-.19-.28-.19-.46v-21.74c0-.19,.06-.34,.19-.46,.12-.12,.28-.19,.46-.19h2.27c.19,0,.34,.06,.46,.19,.12,.12,.19,.28,.19,.46v21.74c0,.19-.06,.34-.19,.46-.12,.12-.28,.19-.46,.19h-2.27c-.19,0-.34-.06-.46-.19Z"/><path class="cls-1" d="M349.42,94.12c-1.47-.86-2.63-2.03-3.5-3.5-.87-1.47-1.3-3.08-1.3-4.84v-14.18h-2.83c-.18,0-.34-.06-.46-.19-.12-.12-.19-.28-.19-.46v-2.22c0-.19,.06-.34,.19-.46,.12-.12,.28-.19,.46-.19h20.4c.46,0,.86,.16,1.18,.49,.32,.33,.49,.72,.49,1.18v16.04c0,1.76-.43,3.38-1.3,4.84-.87,1.47-2.03,2.63-3.5,3.5-1.47,.87-3.07,1.3-4.8,1.3s-3.38-.43-4.84-1.3Zm7.83-2.94c.91-.54,1.64-1.27,2.18-2.2,.54-.93,.81-1.93,.81-3.01v-14.37h-12.01v14.37c0,1.08,.27,2.09,.81,3.01,.54,.93,1.27,1.66,2.2,2.2,.93,.54,1.93,.81,3.01,.81s2.08-.27,2.99-.81Z"/><path class="cls-1" d="M394.92,82.21c-.12-.12-.19-.28-.19-.46v-2.22c0-.19,.06-.34,.19-.46,.12-.12,.28-.19,.46-.19h11.5c.19,0,.34,.06,.46,.19,.12,.12,.19,.28,.19,.46v2.22c0,.19-.06,.34-.19,.46-.12,.12-.28,.19-.46,.19h-11.5c-.19,0-.34-.06-.46-.19Z"/><path class="cls-1" d="M442.15,94.72c-.12-.12-.19-.28-.19-.46v-22.67h-3.85c-.19,0-.34-.06-.46-.19-.12-.12-.19-.28-.19-.46v-2.22c0-.19,.06-.34,.19-.46,.12-.12,.28-.19,.46-.19h5.79c.46,0,.86,.16,1.18,.49,.32,.33,.49,.72,.49,1.18v24.52c0,.19-.06,.34-.19,.46-.12,.12-.28,.19-.46,.19h-2.32c-.19,0-.34-.06-.46-.19Z"/><path class="cls-1" d="M477.4,94.42c-.32-.33-.49-.72-.49-1.18v-24.52c0-.19,.06-.34,.19-.46,.12-.12,.28-.19,.46-.19h2.32c.19,0,.34,.06,.46,.19,.12,.12,.19,.28,.19,.46v22.71h7.88c1.73,0,3.18-.59,4.36-1.78,1.17-1.19,1.76-2.63,1.76-4.33v-11.5c0-.9-.26-1.58-.77-2.06-.51-.48-1.13-.72-1.88-.72s-1.41,.26-1.92,.79-.76,1.16-.76,1.9v7.04c0,.19-.06,.34-.19,.46-.12,.12-.28,.19-.46,.19h-2.32c-.19,0-.34-.06-.46-.19-.12-.12-.19-.28-.19-.46v-6.91c0-1.14,.29-2.19,.86-3.15,.57-.96,1.35-1.72,2.34-2.27,.99-.56,2.09-.83,3.29-.83,1.73,0,3.17,.56,4.31,1.69s1.71,2.65,1.71,4.57v11.82c0,1.67-.42,3.21-1.25,4.61-.83,1.41-1.95,2.53-3.36,3.36-1.41,.83-2.94,1.25-4.61,1.25h-10.29c-.46,0-.86-.16-1.18-.49Z"/></g></g></g></svg>