<?xml version="1.0" encoding="UTF-8"?><svg id="Layer_2" xmlns="http://www.w3.org/2000/svg" viewBox="0 0 7.64 14.28"><defs><style>.cls-1{fill:#fff;}</style></defs><g id="Layer_1-2"><g><path class="cls-1" d="M0,10.25l.02-.17c.02-.23,.07-.46,.13-.69,.11-.38,.27-.73,.5-1.06,.4-.59,.93-1.04,1.58-1.35,.3-.14,.61-.24,.93-.29,.02,0,.03-.01,.03-.03,0,0,0-.02,0-.03V2.45s-.02,.01-.03,.02c-.61,.61-1.22,1.22-1.83,1.83-.07,.07-.14,.14-.21,.22-.02,.02-.03,.02-.04,0-.29-.29-.57-.58-.86-.86-.02-.02-.02-.03,0-.04h.01L3.78,.03l.02-.02s.02-.01,.03,0h.01c1.19,1.21,2.38,2.4,3.58,3.59t0,.06l-.84,.84s-.03,.03-.06,0c-.68-.68-1.35-1.36-2.03-2.03l-.02-.02s0,.02,0,.03c0,1.39,0,2.78,0,4.16,0,.03,0,.04,.04,.04,.57,.1,1.1,.33,1.57,.67,.45,.33,.81,.73,1.08,1.21,.22,.39,.37,.8,.44,1.24,.05,.27,.06,.54,.05,.81-.02,.47-.12,.92-.31,1.35-.2,.47-.49,.88-.86,1.24-.4,.38-.85,.66-1.37,.85-.26,.09-.53,.16-.8,.19-.12,.01-.23,.03-.35,.03-.01,0-.02,0-.03,0h-.19c-.05,0-.1,0-.15,0-.18-.01-.35-.03-.52-.07-.38-.08-.75-.21-1.09-.4-.39-.22-.74-.5-1.04-.84-.36-.41-.61-.88-.77-1.4-.07-.24-.12-.48-.14-.72l-.02-.17v-.4Zm1.28,.2c0,1.37,1.11,2.54,2.54,2.54,1.44,0,2.55-1.17,2.55-2.54,0-1.39-1.13-2.54-2.54-2.54-1.41,0-2.55,1.15-2.55,2.54Z"/><path class="cls-1" d="M3.82,11.98c-.83,0-1.53-.67-1.53-1.53,0-.84,.67-1.53,1.53-1.53,.86,0,1.53,.69,1.53,1.53,0,.86-.71,1.53-1.53,1.53Z"/></g></g></svg>