<?xml version="1.0" encoding="UTF-8"?><svg id="Layer_2" xmlns="http://www.w3.org/2000/svg" viewBox="0 0 8.15 14.27"><defs><style>.cls-1{fill:#fff;}</style></defs><g id="Layer_1-2"><path class="cls-1" d="M8.15,4.29c0,.06-.01,.12-.02,.18-.02,.24-.07,.47-.13,.71-.16,.57-.43,1.07-.81,1.52-.31,.36-.66,.67-1.08,.91-.41,.24-.85,.4-1.32,.49-.03,0-.04,.02-.04,.05,0,.67,0,1.33,0,2,0,.04,0,.04,.05,.04,.87,0,1.73,0,2.6,0,.01,0,.02,0,.03,0,.04,0,.04,0,.04,.04,0,.43,0,.85,0,1.28,0,.05,0,.05-.05,.05-.87,0-1.74,0-2.61,0-.01,0-.02,0-.03,0-.02,0-.02,0-.02,.02,0,.01,0,.02,0,.04v2.6s0,.02,0,.03c0,.02,0,.03-.03,.03,0,0-.01,0-.02,0-.42,0-.85,0-1.27,0-.05,0-.05,0-.05-.05,0-.87,0-1.74,0-2.62,0-.06,0-.05-.06-.05-.87,0-1.74,0-2.61,0q-.05,0-.05-.05c0-.42,0-.84,0-1.26t.05-.05c.87,0,1.74,0,2.61,0q.05,0,.05-.05c0-.66,0-1.33,0-1.99,0-.05,0-.05-.05-.06-.63-.12-1.2-.37-1.71-.75-.34-.26-.64-.56-.88-.91-.31-.44-.53-.92-.65-1.45-.05-.22-.08-.45-.09-.67-.01-.22,0-.44,.01-.66,.07-.62,.26-1.2,.59-1.73,.18-.29,.4-.56,.64-.79,.35-.33,.75-.6,1.19-.79,.33-.14,.67-.24,1.03-.3,.15-.02,.3-.04,.46-.04,.01,0,.02,0,.03,0,.07,0,.14,0,.22,0,0,0,.02,0,.02,0,.13,0,.27,.01,.4,.03,.3,.04,.59,.11,.87,.22,.67,.25,1.24,.65,1.7,1.19,.39,.46,.67,.98,.83,1.56,.06,.22,.1,.45,.12,.68l.02,.18v.43Zm-1.36-.21c0-1.46-1.18-2.71-2.71-2.71-1.53,0-2.72,1.25-2.72,2.71,0,1.48,1.21,2.71,2.71,2.71,1.5,0,2.72-1.23,2.71-2.71Z"/></g></svg>