<?xml version="1.0" encoding="UTF-8"?><svg id="Layer_2" xmlns="http://www.w3.org/2000/svg" viewBox="0 0 317 48.16"><defs><style>.cls-1{fill:#fff;}</style></defs><g id="Layer_1-2"><g><path class="cls-1" d="M78.08,10.54h3.18l.47,1.55h1.33l-2.61-7.79-1.42,.04-2.69,7.75h1.26l.48-1.55Zm1.56-5.06h.09l1.26,4.16h-2.63l1.28-4.16Z"/><path class="cls-1" d="M86.36,12.23c.56,0,1.21-.04,1.77-.27l.05-.99c-.48,.13-1,.23-1.44,.23-1.07,0-1.99-.65-1.99-2.29,0-.91,.24-1.51,.6-1.89,.29-.22,.67-.33,1.14-.33,.52,0,1.02,.09,1.52,.22l.08-.98c-.42-.19-.94-.27-1.49-.27-1.84,0-3.08,1.27-3.08,3.37s1.35,3.2,2.83,3.2"/><path class="cls-1" d="M92.29,8.25c-.7,0-1.52,.05-2.06,.34-.64,.3-1.03,.94-1.03,1.75s.55,1.83,1.91,1.83c.74,0,1.38-.29,1.93-.83l.08,.02,.09,.71h1.02V7.94c0-1.56-.84-2.27-2.38-2.27-.74,0-1.5,.14-2.19,.36l-.08,.98c.69-.2,1.46-.33,2.07-.33,1.16,0,1.39,.5,1.39,1.49v.13c-.24-.02-.47-.02-.75-.02m.74,2.22c-.47,.51-1.05,.72-1.56,.72-.72,0-1.11-.42-1.11-1.04,0-.3,.05-.58,.2-.81,.48-.27,1.04-.28,1.59-.28,.33,0,.58,.01,.88,.04v1.37Z"/><path class="cls-1" d="M101.01,3.14l-1.18,.15v2.5c-.32-.09-.61-.13-.94-.13-1.72,0-3.25,1.13-3.25,3.49,0,1.96,1.03,3.02,2.4,3.02,.58,0,1.26-.2,1.8-.77l.09,.04,.09,.64h.99V3.14Zm-1.18,7.37c-.58,.62-1.14,.69-1.41,.69-1.04,0-1.56-.83-1.56-2.24,0-.9,.23-1.64,.69-2.05,.41-.2,.78-.28,1.23-.28,.36,0,.71,.05,1.05,.15v3.72Z"/><path class="cls-1" d="M105.61,12.23c.53,0,1.28-.09,1.96-.34l.06-.9c-.67,.2-1.33,.28-1.86,.28-1.23,0-1.97-.6-2.03-2.1h4.16c.08-.36,.08-.64,.08-.97,0-1.66-.98-2.54-2.49-2.54-1.92,0-2.94,1.44-2.94,3.36,0,2.05,1.17,3.22,3.06,3.22m-1.31-5.27c.33-.28,.78-.37,1.13-.37,.9,0,1.35,.59,1.39,1.79h-3.06c.08-.69,.3-1.12,.55-1.42"/><path class="cls-1" d="M110.59,7.21c.64-.37,1.21-.5,1.65-.5,.75,0,1.12,.32,1.12,1.13v4.24h1.18V7.63c0-.17,0-.31-.03-.43,.66-.36,1.22-.48,1.69-.48,.75,0,1.11,.32,1.11,1.13v4.24h1.18V7.62c0-1.37-.61-1.93-1.77-1.93-.91,0-1.74,.37-2.35,.74l-.09-.04c-.28-.51-.79-.7-1.52-.7-.81,0-1.54,.33-2.12,.72l-.09-.03-.04-.66-1.11,.14v6.23h1.18V7.21Z"/><polygon class="cls-1" points="125.21 5.84 123.96 5.84 122.5 10.9 122.4 10.9 120.75 5.84 119.44 5.84 121.83 12.03 121.83 12.12 120.62 14.53 121.89 14.53 123.07 11.98 125.21 5.84"/><path class="cls-1" d="M131.22,12.24c1.87,0,3.09-1.35,3.09-3.47,0-1.91-1.25-3.1-2.81-3.1-1.93,0-3.13,1.33-3.13,3.46,0,1.92,1.22,3.11,2.85,3.11m-1.17-5.07c.36-.37,.69-.53,1.3-.53,.99,0,1.73,.7,1.73,2.27,0,.79-.15,1.4-.39,1.83-.34,.36-.78,.53-1.3,.53-1.13,0-1.79-.78-1.79-2.31,0-.74,.15-1.33,.46-1.79"/><path class="cls-1" d="M136.11,12.09h1.18V6.77h1.74l.06-.93h-1.8v-.93c0-.24,.02-.46,.08-.64,.18-.14,.43-.22,.79-.22,.39,0,.77,.05,1.09,.1l.16-.95c-.41-.09-.83-.13-1.17-.13-1.31,0-2.14,.55-2.14,1.98v.78l-1.05,.09-.04,.84h1.09v5.32Z"/><path class="cls-1" d="M143.71,10.54h3.18l.47,1.55h1.33l-2.61-7.79-1.42,.04-2.69,7.75h1.26l.48-1.55Zm1.56-5.06h.09l1.26,4.16h-2.63l1.28-4.16Z"/><path class="cls-1" d="M150.8,7.4c.53-.43,.97-.56,1.47-.56,.22,0,.43,.03,.67,.08l.09-1.08c-.23-.09-.44-.13-.66-.13-.52,0-1.03,.27-1.54,.85l-.08-.03-.03-.81-1.12,.14v6.23h1.18V7.4Z"/><path class="cls-1" d="M154.54,10.91c0,.88,.37,1.26,1.45,1.26,.34,0,.74-.06,1.12-.18v-.94c-.36,.06-.64,.08-.85,.08-.17,0-.34-.01-.53-.04V6.77h1.42l.08-.93h-1.5v-1.66l-.97,.13-.15,1.51-.95,.05-.05,.89h.94v4.16Z"/><path class="cls-1" d="M160.13,11.3c-.48,0-1.11-.14-1.8-.48l-.22,.94c.58,.29,1.18,.46,1.89,.46,1.63,0,2.44-.86,2.44-1.86,0-1.89-3.11-2.13-3.11-3.16,0-.19,.09-.34,.25-.47,.2-.1,.56-.18,.93-.18,.41,0,.97,.09,1.58,.37l.2-.94c-.58-.22-1.13-.32-1.68-.32-1.37,0-2.39,.65-2.39,1.69,0,1.83,3.06,1.94,3.06,3.19,0,.22-.09,.41-.23,.55-.24,.15-.57,.22-.93,.22"/><path class="cls-1" d="M167.6,8.38l-1.12,.06c-.08,.74-.11,1.45-.11,2.01v1.64h1.23v-3.71Z"/><path class="cls-1" d="M170.46,6.5c.05,.36,.05,.75,.05,1.14v4.45h1.25V7.49c0-1.8-.47-2.08-3.02-2.08-.84,0-1.77,.04-2.55,.11l.08,1c.83-.06,1.8-.1,2.55-.1,.64,0,1.19,.01,1.65,.08"/><path class="cls-1" d="M173.79,6.47v2.9h1.23v-2.85c0-.93-.28-1.08-1.25-1.08-.3,0-.69,0-1,.01l.1,1.02h.91Z"/><path class="cls-1" d="M177.67,12.09l.43-5.18c.8-.36,1.58-.43,2.16-.43,.3,0,.53,.01,.74,.05,.06,.5,.06,.99,.06,1.51v2.99h-1.89v1.07h3.11V7.83c0-1.98-.34-2.43-1.82-2.43-.92,0-1.72,.19-2.63,.69l-.24-.72-1.13,.08,.48,1.47-.53,5.17h1.26Z"/><path class="cls-1" d="M186.6,6.47c-.1,.75-.15,1.5-.15,2.68v2.95h1.26V6.51l.9-.09v-.95h-5.27l.08,1h3.19Z"/><polygon class="cls-1" points="194.42 6.56 192.36 12.09 193.62 12.09 195.6 6.44 195.47 5.46 189.79 5.46 189.87 6.47 194.38 6.47 194.42 6.56"/><path class="cls-1" d="M191.15,8.13l-1.11,.03c-.09,.76-.13,1.66-.13,2.25v4.14h1.23v-6.42Z"/><path class="cls-1" d="M202.16,7.29l.16-1.83h-1.23l-.09,1.56c-.03,.7-.22,1.41-.46,1.83l-.09,.04c-.92-1.12-1.88-2.35-2.89-3.49l-1.37,.1c.5,.53,1,1.12,1.5,1.69v.06c-.48,.62-.79,1.44-.89,2.45l-.22,2.39h1.25l.13-2.01c.04-.71,.18-1.41,.39-1.99h.06c.94,1.16,2.03,2.57,3.06,4h1.3v-.14c-.53-.79-1.07-1.51-1.61-2.24,.53-.57,.9-1.45,.99-2.43"/><path class="cls-1" d="M24.16,28.23c-.37-.01-.78,.04-1.09,.17,.03,.34,.11,.69,.23,1.08l.97-.14-.1-1.11Z"/><path class="cls-1" d="M22.19,28.23c-.37-.01-.78,.04-1.09,.17,.03,.34,.11,.69,.23,1.08l.97-.14-.1-1.11Z"/><path class="cls-1" d="M45.55,21.67l-.1-1.11c-.37-.01-.77,.04-1.09,.16,.03,.34,.11,.69,.23,1.08l.97-.14Z"/><path class="cls-1" d="M47.47,21.67l-.1-1.11c-.37-.01-.78,.04-1.09,.16,.03,.34,.11,.69,.23,1.08l.97-.14Z"/><path class="cls-1" d="M50.04,26.69c.39-.31,.65-.74,.66-1.54l.09-7.24-1.25,.13,.06,7.69c-.43,.29-.79,.38-1.33,.38h0c-.7,0-1.36-.14-1.84-.41l.09-2.96-1.13,.08-.11,2.9c-.5,.27-1,.39-1.8,.39h-.01c-.3,0-.65-.04-1.05-.12,.1-.18,.15-.41,.15-.67,0-1.33-.98-3.22-2.64-3.22-1.27,0-2.71,1.35-4.32,3.67l-.67-.34,.33-1.86-1.07,.04-.23,1.47c-.14,.83-.57,.99-1.46,1.02h-.01c-.6,0-.85-.39-1.06-.95-.56-1.61-.98-2.96-2.38-2.96s-1.98,1.23-2.73,3.27c-.28,.5-.65,.65-1.08,.65-.7,0-1.36-.14-1.84-.41l.09-2.96-1.13,.08-.11,2.9c-.49,.27-1,.39-1.8,.39h0c-.7,0-.95-.41-1.08-.76-.45-1.31-.95-3.02-2.39-3.02s-2.16,1.56-2.68,3.51c-.15-.04-.27-.05-.34-.05-.33,.04-.64,.43-.64,.78,0,.37,.01,.75,.03,1.27l.14,3.2h1.17l-.34-4.08,.06-.05c.74,.29,1.73,.52,2.67,.52s1.51-.23,1.94-.62h.08c.29,.32,.71,.48,1.39,.48h0c.85,0,1.7-.2,2.38-.72h.09c.62,.5,1.44,.72,2.34,.72,.64-.01,1.04-.14,1.5-.74h.1c.53,.51,1.22,.86,2.12,.86,.64,0,1.28-.2,1.91-.92h.1c.39,.6,.89,.79,1.51,.79h.01c.84,0,1.56-.23,2.02-.86h.1c1.05,.71,2.38,.95,3.57,.95,1.28,0,2.52-.25,3.32-.64h.1c.66,.42,1.28,.55,1.85,.55h.01c.85,0,1.7-.2,2.38-.72h.09c.62,.5,1.44,.72,2.34,.72h0c.72,0,1.33-.2,1.77-.59m-32.86-.38c-.69,0-1.46-.15-2.05-.29,.36-1.49,.85-2.52,1.72-2.52s1.12,.86,1.69,2.49c-.45,.25-.9,.32-1.36,.32m11.86-.1c-.62,0-1.32-.18-1.82-.64,.5-1.53,.95-2.2,1.66-2.2s1.13,.62,1.64,2.22c-.39,.42-.95,.61-1.49,.61m9.34,.05c-.5,0-1.14-.03-1.84-.19l-.03-.09c1.39-1.82,2.39-2.69,3.18-2.69,1.14,0,1.87,1.21,1.86,2.26-.84,.5-2.19,.71-3.16,.71"/><polygon class="cls-1" points="53.19 27.28 54.28 27.28 54.36 17.96 53.14 18.08 53.19 27.28"/><path class="cls-1" d="M57.7,28.87c-.39,0-.93-.05-1.41-.23l-.14,1.02c.42,.2,1.02,.36,1.61,.36,2.01,0,3.18-1.66,3.18-3.91s-1.17-3.62-2.33-3.62c-1.23,0-2.46,1.58-2.46,2.9,0,1.22,.97,1.78,2.19,1.78,.45,0,1.05-.08,1.6-.29-.14,1.31-.83,2.01-2.24,2.01m.93-2.74c-1.05,0-1.51-.34-1.6-.67,.01-.75,.65-1.8,1.47-1.8s1.36,.89,1.45,2.29c-.36,.12-.83,.19-1.32,.19"/><path class="cls-1" d="M70.11,23.77l.43,3.55c-.58,.83-1.46,1.13-2.48,1.13-1.54,0-2.31-.71-2.31-2.2,0-.55,.1-1.11,.28-1.73l-.9-.19c-.33,.86-.44,1.61-.44,2.22,0,2.02,1.31,3.09,3.23,3.09s3.56-1.07,3.56-2.95c0-.51-.1-1.8-.24-3.08l-1.12,.15Z"/><path class="cls-1" d="M68.51,22.92l-.1-1.11c-.37-.01-.77,.04-1.09,.16,.03,.34,.11,.69,.23,1.08l.97-.14Z"/><path class="cls-1" d="M80.61,21.81l.97-.14-.1-1.11c-.37-.01-.78,.04-1.09,.16,.03,.34,.11,.69,.23,1.08"/><path class="cls-1" d="M86.1,20.45l.97-.14-.1-1.11c-.37-.01-.78,.04-1.09,.17,.03,.34,.11,.69,.23,1.08"/><path class="cls-1" d="M95.9,26.69c.39-.31,.65-.74,.66-1.54l.09-7.24-1.25,.13,.06,7.69c-.43,.29-.79,.38-1.33,.38h0c-.64,0-1.23-.15-1.69-.43l.08-7.75-1.25,.13,.05,7.64c-.46,.29-.93,.42-1.66,.42h-.98c-.38,0-.76-.04-1.13-.12l-.05-.05c.83-.6,1.35-1.28,1.35-1.98,0-1.13-.92-2.53-2.25-2.53-1.26,0-2.47,1.37-2.47,2.57,0,.65,.36,1.35,1,1.91l-.05,.05c-.52,.09-1.09,.15-1.74,.15-.7,0-1.36-.14-1.84-.41l.09-2.96-1.13,.08-.11,2.9c-.5,.27-1,.39-1.8,.39h-.9c-.1-2.44-1.25-3.55-2.29-3.55-1.26,0-2.41,1.45-2.41,2.86,0,1.23,.95,1.82,2.59,1.82h1.07c-.19,1.08-.94,1.61-2.2,1.61-.39,0-.94-.08-1.41-.23l-.13,1.02c.39,.2,.99,.36,1.59,.36,1.7,0,2.8-1.13,3.1-2.72h.99c.85,0,1.7-.2,2.38-.72h.09c.62,.5,1.44,.72,2.34,.72,1,0,2-.23,2.85-.57h.1c.95,.46,2.01,.56,3.37,.57h0c.79,0,1.58-.19,2.22-.75h.09c.6,.51,1.38,.75,2.16,.75h0c.72,0,1.33-.2,1.77-.59m-20.19-.51c-1.05,0-1.79-.18-1.89-.81,.06-.69,.55-1.64,1.35-1.64,.88,0,1.44,1.12,1.5,2.45h-.95Zm10.64-.64c-.74-.42-1.27-1.04-1.35-1.7,.15-.65,.81-1.23,1.46-1.23s1.32,.38,1.54,1.63c-.33,.56-.84,.98-1.56,1.31h-.09Z"/><path class="cls-1" d="M104.92,19.32l.97-.14-.1-1.11c-.37-.01-.78,.04-1.09,.16,.03,.34,.11,.69,.23,1.08"/><path class="cls-1" d="M103.01,19.32l.97-.14-.1-1.11c-.37-.01-.78,.04-1.09,.16,.03,.34,.11,.69,.23,1.08"/><path class="cls-1" d="M108.11,28.23c-.37-.01-.78,.04-1.09,.17,.03,.34,.11,.69,.23,1.08l.97-.14-.1-1.11Z"/><path class="cls-1" d="M110.08,28.23c-.37-.01-.78,.04-1.09,.17,.03,.34,.11,.69,.23,1.08l.97-.14-.1-1.11Z"/><path class="cls-1" d="M116.78,26.49h.1c.39,.6,.89,.79,1.51,.79h.01c1.03,0,1.91-.24,2.4-.65,.41-.3,.61-.75,.61-1.52,0-.46-.06-1.89-.16-2.82l-1.16,.11,.31,3.3c-.59,.3-1.22,.41-2,.41h-.01c-.6,0-.85-.39-1.06-.95-.56-1.61-.98-2.96-2.38-2.96s-1.98,1.23-2.73,3.27c-.28,.5-.65,.65-1.08,.65h0c-.7,0-1.36-.14-1.84-.41l.09-2.96-1.13,.08-.11,2.9c-.5,.27-1,.39-1.8,.39-.95,0-1.17-.25-1.21-1.22l-.14-4.63-1.08,.14,.04,.71c-2.57,.83-3.18,2.29-3.18,3.24,0,.85,.7,1.54,2.15,1.54,.34,0,.83-.03,1.3-.16l.09,.04c.18,1.08,.76,1.51,2.03,1.51,.85,0,1.7-.2,2.38-.72h.09c.62,.5,1.44,.72,2.34,.72h0c.64-.01,1.04-.14,1.5-.74h.1c.53,.51,1.22,.86,2.12,.86,.64,0,1.28-.2,1.91-.92m-13.78-1.66c-.66,0-1.18-.11-1.36-.56,.15-.98,.88-1.72,2.39-2.12l.11,2.55c-.38,.1-.8,.13-1.14,.13m11.79-1.45c.71,0,1.13,.62,1.64,2.22-.39,.42-.95,.61-1.49,.61-.62,0-1.32-.18-1.82-.64,.5-1.53,.95-2.2,1.66-2.2"/><path class="cls-1" d="M120.58,28.4c.03,.34,.11,.69,.23,1.08l.97-.14-.1-1.11c-.37-.01-.78,.04-1.09,.17"/><path class="cls-1" d="M118.84,29.48l.97-.14-.1-1.11c-.37-.01-.78,.04-1.09,.16,.03,.34,.11,.69,.23,1.08"/><path class="cls-1" d="M124.85,27.4c1.75,0,3.09-.88,3.09-2.16s-.85-3.27-2.67-4.61l-.78,.95c1.44,1.12,2.38,2.55,2.48,3.91-.55,.61-1.36,.72-2.03,.72s-1.23-.14-1.23-.53c0-.08,.01-.19,.03-.32l-.89-.09c-.06,.24-.11,.52-.11,.75,0,1.09,1.14,1.37,2.12,1.37"/><path class="cls-1" d="M136.07,26.64c.45-.27,.71-.61,.71-1.17,0-.93-.84-2.78-2.71-4.3v-.1l3.02-2.03-.1-1.21-4.24,3.1v.81l.65,.33c1.42,1.26,2.15,2.4,2.45,3.52-.89,.47-1.94,.51-3.63,.51h-.01c-.89,0-1.25-.17-1.25-.93v-7.22l-1.22,.13,.11,7.21c.01,1.5,.66,1.98,2.35,1.98h.01c1.91,0,3.06-.14,3.85-.64"/><polygon class="cls-1" points="139.73 27.28 139.78 19.49 138.53 19.63 138.67 27.28 139.73 27.28"/><path class="cls-1" d="M139.25,16.83c.22,0,.46,.04,.67,.14l.1-.74c-.24-.13-.48-.18-.71-.18-.75,0-1.21,.58-1.21,1.17,0,.33,.17,.62,.47,.88l-.72,.1v.61l2.69-.28v-.71l-.74,.1c-.6-.2-1.05-.48-1.13-.8,.13-.17,.32-.29,.57-.29"/><path class="cls-1" d="M147.92,26.54l.08,.03,.09,.71h1.02v-4.16c0-1.56-.84-2.27-2.38-2.27-.74,0-1.5,.14-2.19,.36l-.08,.98c.69-.2,1.46-.33,2.07-.33,1.16,0,1.39,.49,1.39,1.49v.13c-.24-.03-.47-.03-.75-.03-.7,0-1.52,.05-2.06,.34-.63,.3-1.03,.94-1.03,1.75s.55,1.83,1.91,1.83c.74,0,1.38-.29,1.93-.83m-2.68-1.19c0-.31,.05-.59,.2-.81,.48-.27,1.04-.28,1.59-.28,.33,0,.58,.01,.88,.04v1.37c-.47,.51-1.05,.72-1.56,.72-.72,0-1.11-.42-1.11-1.04"/><path class="cls-1" d="M155,27.28h1.18v-4.47c0-1.37-.62-1.93-1.79-1.93-.92,0-1.65,.36-2.24,.72l-.09-.03-.04-.66-1.11,.14v6.23h1.18v-4.86c.69-.39,1.27-.52,1.75-.52,.76,0,1.14,.32,1.14,1.13v4.24Z"/><path class="cls-1" d="M159.99,27.38c.58,0,1.26-.2,1.8-.78l.09,.04,.09,.64h.99v-8.95l-1.18,.15v2.5c-.32-.09-.61-.13-.94-.13-1.72,0-3.25,1.13-3.25,3.49,0,1.96,1.03,3.02,2.4,3.02m-.5-5.27c.41-.2,.78-.28,1.23-.28,.36,0,.71,.05,1.05,.15v3.72c-.58,.62-1.14,.69-1.41,.69-1.04,0-1.56-.83-1.56-2.24,0-.9,.23-1.64,.69-2.05"/><path class="cls-1" d="M173.76,23.1c0-3-2-3.69-3.74-3.69-.53,0-1.31,0-2.48,.14v7.71c.98,.06,1.55,.09,2.25,.09,2.52,0,3.96-1.44,3.96-4.26m-4.98-2.62c.37-.05,.71-.05,1.09-.05,1.6,0,2.59,.69,2.59,2.8,0,1.5-.45,2.39-1.39,2.95-.42,.11-.79,.14-1.16,.14s-.75-.01-1.14-.05v-5.78Z"/><path class="cls-1" d="M179.94,26.17c-.67,.2-1.33,.28-1.86,.28-1.23,0-1.97-.6-2.03-2.1h4.16c.08-.36,.08-.64,.08-.97,0-1.66-.98-2.54-2.49-2.54-1.92,0-2.94,1.44-2.94,3.35,0,2.05,1.17,3.22,3.06,3.22,.53,0,1.28-.09,1.96-.34l.06-.9Zm-3.33-4.03c.33-.28,.77-.37,1.13-.37,.9,0,1.35,.58,1.39,1.79h-3.06c.08-.69,.3-1.12,.55-1.42"/><path class="cls-1" d="M185.65,25.55c0-1.89-3.11-2.13-3.11-3.16,0-.19,.09-.34,.25-.47,.2-.1,.56-.18,.93-.18,.41,0,.97,.09,1.58,.37l.2-.94c-.58-.22-1.13-.32-1.68-.32-1.37,0-2.39,.65-2.39,1.69,0,1.83,3.06,1.95,3.06,3.19,0,.22-.09,.41-.23,.55-.24,.15-.57,.22-.93,.22-.48,0-1.11-.14-1.8-.48l-.22,.94c.58,.29,1.18,.46,1.89,.46,1.63,0,2.44-.86,2.44-1.86"/><path class="cls-1" d="M187.25,18.78c.01,.45,.05,.81,.13,1.26l1.16-.02,.08-1.27c-.48-.04-1-.01-1.36,.04"/><polygon class="cls-1" points="188.65 27.28 188.65 21.03 186.57 21.03 186.52 21.91 187.48 21.97 187.48 27.28 188.65 27.28"/><path class="cls-1" d="M195.69,27.67c0-1.32-1.3-1.54-3.05-1.79-.28-.04-.49-.06-.94-.15l.17-.7c.2,.05,.44,.06,.67,.06,1.42,0,2.66-.72,2.66-2.08,0-.55-.2-.95-.62-1.26v-.09l1.35,.05,.06-.85-2.31,.09c-.29-.05-.57-.09-.89-.09-1.47,0-2.63,.88-2.63,2.25,0,.74,.34,1.26,.89,1.59v.1c-.25,.36-.36,.64-.36,.94,0,.28,.09,.49,.27,.69v.1c-.57,.47-.93,.99-.93,1.65,0,1.36,1.27,1.79,2.52,1.79,1.92,0,3.15-1.02,3.15-2.3m-3.9-5.74c.37-.18,.65-.22,.9-.22,.93,0,1.32,.53,1.32,1.32,0,.49-.18,.84-.44,1.08-.28,.14-.57,.18-.81,.18-.97,0-1.42-.53-1.42-1.27,0-.45,.18-.8,.46-1.09m-.7,6.01c0-.42,.22-.78,.58-1.16l.67,.12c1.26,.17,2.31,.23,2.31,1.02,0,.66-.83,1.14-1.86,1.14-.94,0-1.72-.34-1.72-1.12"/><path class="cls-1" d="M202.26,27.28v-4.47c0-1.37-.62-1.93-1.79-1.93-.92,0-1.65,.36-2.24,.72l-.09-.03-.04-.66-1.11,.14v6.23h1.18v-4.86c.69-.39,1.27-.52,1.75-.52,.76,0,1.14,.32,1.14,1.13v4.24h1.18Z"/><path class="cls-1" d="M12.21,38.35l.37,3.3c-.86,.04-1.69-.15-2.53-.53l.24-2.3-1.07,.04-.22,2.44c-.41,.25-.86,.32-1.26,.32-.34,0-.67-.05-.99-.17-.04-.64-.11-1.52-.22-2.4l-1.12,.15,.43,3.55c-.58,.83-1.46,1.13-2.48,1.13-1.54,0-2.31-.71-2.31-2.2,0-.55,.1-1.11,.28-1.73l-.9-.19c-.33,.86-.45,1.61-.45,2.22,0,2.02,1.31,3.09,3.23,3.09,1.75,0,3.28-.89,3.52-2.48,.29,.1,.62,.17,.94,.17,.69,0,1.4-.22,2.02-.71h.1c.74,.43,1.45,.71,2.34,.71,.52,0,.86-.13,1.02-.27,.25-.19,.39-.57,.39-1.07s-.11-2.02-.24-3.18l-1.11,.1Z"/><path class="cls-1" d="M23.21,35.89l.97-.14-.1-1.11c-.37-.01-.78,.04-1.09,.17,.03,.34,.11,.69,.23,1.08"/><path class="cls-1" d="M25.99,34.64c-.37-.01-.78,.04-1.09,.17,.03,.34,.11,.69,.23,1.08l.97-.14-.1-1.11Z"/><path class="cls-1" d="M29.05,41.16c-.43,.29-.79,.38-1.33,.38h-.98c-.38,0-.76-.04-1.13-.11l-.05-.05c.83-.6,1.35-1.28,1.35-1.98,0-1.13-.91-2.53-2.25-2.53-1.26,0-2.46,1.37-2.46,2.57,0,.65,.36,1.35,1,1.91l-.05,.05c-.52,.09-1.09,.15-1.74,.15h-.01c-.55,0-1.05-.18-1.41-1.25l-1.27-3.76-1.09,.16,1.6,4.37-.05,.06c-.75,.41-1.46,.56-2.22,.56-.85,0-1.09-.19-1.09-.61,0-.1,0-.15,.03-.28l-.89-.09c-.08,.25-.11,.52-.11,.76,0,.98,.63,1.39,1.91,1.39s2.13-.39,2.8-.95h.1c.42,.57,.98,.8,1.72,.8h.01c1,0,2-.23,2.85-.57h.1c.95,.46,2.01,.56,3.37,.57h0c.72,0,1.33-.2,1.77-.58,.39-.31,.65-.74,.66-1.54l.09-7.24-1.25,.13,.06,7.69Zm-4.65-.18c-.74-.42-1.27-1.04-1.35-1.7,.15-.65,.81-1.23,1.46-1.23s1.32,.38,1.54,1.63c-.33,.56-.84,.98-1.56,1.31h-.09Z"/><polygon class="cls-1" points="32.64 42.71 33.73 42.71 33.81 33.4 32.59 33.51 32.64 42.71"/><path class="cls-1" d="M41.21,36.03c-.86,0-1.86,.06-2.68,.14l.09,1v5.54h5.77v-4.33c0-2.11-.46-2.35-3.18-2.35m1.93,5.65h-3.27v-4.59c.65-.05,1.17-.06,1.56-.06,.78,0,1.27,.03,1.65,.08,.02,.32,.05,.66,.05,1.17v3.41Z"/><path class="cls-1" d="M46.41,36.07c-.31,0-.69,0-1,.01l.1,1.02h.91v2.9h1.23v-2.85c0-.93-.28-1.08-1.25-1.08"/><polygon class="cls-1" points="49.77 36.08 49.64 34.05 48.52 34.17 48.61 36.08 48.76 37.1 52.28 37.1 52.31 37.19 49.81 42.71 51.14 42.71 53.55 37.01 53.44 36.08 49.77 36.08"/><path class="cls-1" d="M60.15,39.24c-.2,2.01-1.12,2.49-2.72,2.49-.45,0-.85-.01-1.25-.06l-.14-1.3c1.21-.15,2.13-.61,2.34-1.93l.41-2.35h-1.17l-.27,1.93c-.14,.99-.56,1.36-1.3,1.49h-.1l-.36-3.43h-1.19l.6,5.3c.04,.38,.09,.75,.17,1.21,.72,.16,1.63,.2,2.34,.2,1.95,0,3.46-.7,3.76-3.15l.43-3.55h-1.25l-.31,3.15Z"/><path class="cls-1" d="M63.61,36.07c-.32,0-.66,0-.98,.01l.06,1.02h.92v5.62h1.25v-5.55c0-.92-.28-1.09-1.25-1.09"/><path class="cls-1" d="M67.94,36.03c-.72,0-1.39,.04-1.98,.09l.08,1.03c.61-.06,1.31-.1,1.92-.1s1.13,.01,1.47,.06c.04,.36,.04,.66,.04,1.07v4.54h1.25v-4.45c0-1.98-.23-2.24-2.77-2.24"/><path class="cls-1" d="M72.88,36.07c-.31,0-.69,0-1,.01l.1,1.02h.91v2.9h1.23v-2.85c0-.93-.28-1.08-1.25-1.08"/><path class="cls-1" d="M80.26,40.13c0,.5-.01,1.03-.11,1.53-.24,.09-.48,.13-.84,.13-.5,0-.98-.08-1.42-.2l-.08,.94c.41,.2,.84,.32,1.41,.32,.67,0,1.27-.11,1.65-.52,.46-.47,.62-1.36,.62-2.48v-4.88h-1.23v5.17Z"/><path class="cls-1" d="M85.9,36.28c-1.92,0-2.94,1.44-2.94,3.36,0,2.05,1.17,3.21,3.06,3.21,.53,0,1.28-.09,1.96-.34l.06-.9c-.67,.2-1.33,.28-1.86,.28-1.23,0-1.97-.6-2.03-2.1h4.16c.08-.36,.08-.64,.08-.97,0-1.66-.98-2.54-2.49-2.54m-1.73,2.72c.08-.69,.3-1.12,.55-1.42,.33-.28,.78-.37,1.13-.37,.9,0,1.35,.58,1.39,1.79h-3.06Z"/><path class="cls-1" d="M91.05,37.19l-.08-.03-.03-.81-1.12,.14v6.23h1.18v-4.69c.53-.43,.97-.56,1.47-.56,.22,0,.43,.03,.67,.08l.09-1.08c-.23-.09-.45-.13-.66-.13-.52,0-1.03,.27-1.54,.85"/><path class="cls-1" d="M98.23,41.15c-.66,.59-1.17,.71-1.64,.71-.78,0-1.16-.31-1.16-1.14v-4.26h-1.18v4.46c0,1.37,.64,1.94,1.8,1.94,.85,0,1.53-.32,2.16-.86l.09,.03,.05,.69h1.05v-6.25h-1.18v4.69Z"/><path class="cls-1" d="M102.1,37.82c0-.19,.09-.34,.25-.47,.2-.1,.56-.18,.93-.18,.41,0,.97,.09,1.58,.37l.2-.94c-.58-.22-1.13-.32-1.68-.32-1.37,0-2.39,.65-2.39,1.69,0,1.83,3.06,1.94,3.06,3.19,0,.22-.09,.41-.23,.55-.24,.15-.57,.22-.93,.22-.48,0-1.11-.14-1.8-.48l-.22,.94c.58,.29,1.18,.46,1.89,.46,1.63,0,2.44-.86,2.44-1.86,0-1.89-3.11-2.13-3.11-3.16"/><path class="cls-1" d="M108.89,36.28c-.74,0-1.5,.14-2.19,.36l-.08,.98c.69-.2,1.46-.33,2.07-.33,1.16,0,1.39,.5,1.39,1.49v.13c-.24-.03-.47-.03-.75-.03-.7,0-1.52,.05-2.06,.34-.64,.3-1.03,.94-1.03,1.75s.55,1.83,1.91,1.83c.74,0,1.38-.29,1.93-.83l.08,.02,.09,.71h1.02v-4.16c0-1.56-.84-2.27-2.38-2.27m1.18,4.82c-.47,.51-1.05,.72-1.56,.72-.72,0-1.11-.42-1.11-1.04,0-.31,.05-.58,.2-.81,.48-.27,1.04-.28,1.59-.28,.33,0,.58,.01,.88,.04v1.37Z"/><path class="cls-1" d="M114.2,41.18v-7.41l-1.18,.15v7.51c0,.51,.03,.88,.24,1.11,.24,.22,.57,.25,.98,.25,.34,0,.7-.04,.99-.1l.06-.89-1.08-.08c-.01-.18-.01-.32-.01-.55"/><path class="cls-1" d="M119.07,36.28c-1.92,0-2.94,1.44-2.94,3.36,0,2.05,1.17,3.21,3.06,3.21,.53,0,1.28-.09,1.96-.34l.06-.9c-.67,.2-1.33,.28-1.86,.28-1.23,0-1.97-.6-2.03-2.1h4.16c.08-.36,.08-.64,.08-.97,0-1.66-.98-2.54-2.49-2.54m-1.73,2.72c.08-.69,.3-1.12,.55-1.42,.33-.28,.78-.37,1.13-.37,.9,0,1.35,.58,1.39,1.79h-3.06Z"/><path class="cls-1" d="M130.32,36.31c-.91,0-1.74,.37-2.35,.74l-.09-.04c-.28-.51-.79-.7-1.52-.7-.81,0-1.54,.33-2.12,.72l-.09-.03-.04-.66-1.11,.14v6.23h1.18v-4.88c.63-.37,1.21-.5,1.65-.5,.75,0,1.12,.32,1.12,1.13v4.24h1.18v-4.46c0-.16,0-.31-.03-.43,.66-.36,1.22-.48,1.69-.48,.75,0,1.11,.32,1.11,1.13v4.24h1.18v-4.47c0-1.37-.61-1.93-1.77-1.93"/><path class="cls-1" d="M140.66,38.07c0-1.78-.48-2.05-2.57-2.05-.69,0-1.44,.03-2.1,.09l.09,1.03c.61-.05,1.41-.09,2.01-.09,.51,0,.92,.03,1.26,.08,.05,.28,.06,.56,.06,.88v3.63h-3.46v1.07h5.69v-1.03l-.99-.06v-3.55Z"/><path class="cls-1" d="M143.05,36.07c-.32,0-.66,0-.98,.01l.06,1.02h.91v5.62h1.25v-5.55c0-.92-.28-1.09-1.25-1.09"/><path class="cls-1" d="M150.98,36.08h-1.21l-.94,3.27h-.08l-2.22-3.32-1.28,.13,2.11,3c.66,.93,1.3,1.7,1.86,2.4l-.03,.09-3.48-.03v1.09h4.92l.15-.99-1.28-1.56v-.1c.58-1.05,.98-2.25,1.49-3.98"/><path class="cls-1" d="M152.65,36.07c-.31,0-.69,0-1,.01l.1,1.02h.91v2.9h1.23v-2.85c0-.93-.28-1.08-1.25-1.08"/><path class="cls-1" d="M159.15,39.09c-.05,1.16-.52,1.78-1.38,2.17l-1.55-5.25-1.23,.09,1.75,5.52-1.7,.56v1.14l2.43-.8c1.56-.51,2.69-1.36,2.85-3.2l.27-3.24h-1.28l-.14,3.01Z"/><path class="cls-1" d="M162.56,36.07c-.32,0-.66,0-.98,.01l.06,1.02h.91v5.62h1.25v-5.55c0-.92-.28-1.09-1.25-1.09"/><path class="cls-1" d="M171.26,36.03c-1.12,0-2.35,.05-3.43,.13l.1,1.03,1.13-.08v3.77c-.01,.55-.15,.8-.78,.8-.16,0-.3-.01-.56-.02v1c.23,.06,.56,.09,.84,.09,1.36,0,1.72-.6,1.72-1.64v-4.05c.41-.01,.78-.03,1.08-.03,.66,0,1.25,.03,1.72,.11,.05,.44,.05,.86,.05,1.27v4.3h1.25v-4.37c0-2.02-.38-2.31-3.11-2.31"/><path class="cls-1" d="M176.6,36.07c-.32,0-.66,0-.98,.01l.06,1.02h.91v5.62h1.25v-5.55c0-.92-.28-1.09-1.25-1.09"/><path class="cls-1" d="M180.59,36.05c-.47,0-.69,.01-1.02,.03l.06,1.02h1.31v4.55h-1.68v1.07h2.91v-4.46c0-1.65,.04-2.2-1.59-2.2"/><path class="cls-1" d="M187.72,36.03c-.92,0-1.72,.19-2.63,.69l-.24-.72-1.13,.08,.48,1.47-.53,5.17h1.26l.43-5.18c.8-.36,1.58-.43,2.16-.43,.3,0,.53,.01,.74,.05,.06,.5,.06,.99,.06,1.51v2.99h-1.89v1.07h3.11v-4.26c0-1.98-.34-2.43-1.82-2.43"/><path class="cls-1" d="M196.45,37.91l.16-1.83h-1.23l-.09,1.56c-.03,.7-.22,1.41-.46,1.83l-.09,.04c-.92-1.12-1.88-2.35-2.89-3.49l-1.37,.1c.5,.53,1,1.12,1.5,1.69v.06c-.48,.62-.79,1.44-.89,2.45l-.22,2.39h1.25l.13-2.01c.04-.71,.18-1.41,.39-1.99h.06c.94,1.16,2.03,2.57,3.06,4h1.3v-.14c-.53-.79-1.07-1.51-1.61-2.24,.53-.57,.9-1.45,.99-2.43"/><polygon class="cls-1" points="198.85 36.08 198.73 34.05 197.61 34.17 197.7 36.08 197.85 37.1 201.37 37.1 201.4 37.19 198.89 42.71 200.23 42.71 202.64 37.01 202.53 36.08 198.85 36.08"/><polygon class="cls-1" points="282.83 6.94 285.77 6.94 285.8 7.03 283.61 11.97 285.86 11.97 288.01 6.71 287.88 5.24 284.61 5.24 284.5 3.14 282.57 3.3 282.63 5.24 282.83 6.94"/><path class="cls-1" d="M290.46,7.18c-.58,.58-.97,1.58-1.04,2.73l-.13,2.06h2.06l.04-1.59c.01-.67,.06-1.22,.18-1.83h.09c.78,1.09,1.5,2.25,2.19,3.42h2.21v-.15c-.5-.86-.99-1.64-1.49-2.4,.69-.67,1-1.8,1.05-2.92l.06-1.26h-2.02l-.04,1.13c-.01,.61-.04,1.22-.16,1.72h-.06c-.7-1-1.37-1.93-2.1-2.91l-2.35,.16c.55,.65,1.04,1.21,1.51,1.8v.04Z"/><polygon class="cls-1" points="297.15 6.94 300.1 6.94 300.12 7.03 297.94 11.97 300.19 11.97 302.33 6.71 302.21 5.24 298.93 5.24 298.83 3.14 296.89 3.3 296.96 5.24 297.15 6.94"/><path class="cls-1" d="M306.49,10.09l-.03,.09h-2.81v1.79h5.43l.27-1.49-1.18-1.26v-.1c.69-.86,.99-1.87,1.39-3.89h-1.96l-.5,2.75h-.08l-1.69-2.82-2.21,.18,1.7,2.49c.74,1.07,1.17,1.6,1.66,2.26"/><path class="cls-1" d="M312.88,6.95c.33,0,.64,.01,.9,.05,.02,.18,.04,.38,.04,.67v2.48h-2.91v1.82h5.87v-1.72l-.84-.08v-2.4c0-2.27-.7-2.62-2.86-2.62-.74,0-1.5,.03-2.19,.12l.15,1.77c.56-.04,1.23-.09,1.83-.09"/><path class="cls-1" d="M284.35,29.47l-.15-1.49c-.48-.05-1.04,.04-1.49,.18,.03,.55,.14,.99,.31,1.47l1.33-.17Z"/><path class="cls-1" d="M286.37,27.98c-.48-.05-1.04,.04-1.49,.18,.03,.55,.14,.99,.31,1.47l1.33-.17-.15-1.49Z"/><path class="cls-1" d="M291.25,20.42l-.6,.11c-.58-.16-1.21-.43-1.32-.69,.17-.09,.37-.14,.61-.14,.19,0,.42,.05,.61,.13l.16-1.18c-.29-.12-.52-.15-.76-.15-.89,0-1.49,.72-1.49,1.54,0,.28,.16,.55,.45,.81l-.71,.14v.88l3.05-.51v-.94Z"/><path class="cls-1" d="M312.47,21.51l-.15-1.49c-.48-.05-1.04,.04-1.49,.18,.03,.55,.14,.99,.31,1.47l1.33-.17Z"/><path class="cls-1" d="M309.13,21.68l1.33-.17-.15-1.49c-.48-.05-1.04,.04-1.49,.18,.03,.55,.14,.99,.31,1.47"/><path class="cls-1" d="M314.14,28.16c.03,.55,.14,.99,.31,1.47l1.33-.17-.15-1.49c-.48-.05-1.04,.04-1.49,.18"/><path class="cls-1" d="M316.39,24.62c0-.52-.05-1.67-.13-2.66l-1.91,.19,.34,3.11c-.51,.18-.95,.24-1.64,.24-.55,0-1.11-.06-1.52-.24l.09-2.8-1.84,.1-.09,2.71c-.37,.14-.79,.23-1.49,.23h0c-1.11,0-1.21-.31-1.27-.88l-.19-2.16-1.84,.17,.27,2.11c.03,.24,.06,.5,.1,.75-.25,.05-.53,.08-.8,.08-.39,0-.86-.08-1.35-.22l.33-2.17-1.78-.08-.25,2.22c-.29,.18-.53,.22-.88,.22-.43,0-.75-.06-1.12-.22l.11-.76,.19-1.39-1.73,.04-.16,1.59c-.05,.55-.43,.7-1.17,.7h-.01c-.5,0-1.03-.08-1.4-.25l.13-7.14-2.1,.18,.13,6.98c-.32,.14-.7,.24-1.3,.24h0c-.55,0-1.11-.06-1.52-.24l.09-2.8-1.84,.1-.09,2.71c-.37,.14-.79,.23-1.49,.23h0c-.55,0-1.11-.06-1.52-.24l.09-2.8-1.84,.1-.09,2.71c-.37,.14-.79,.23-1.49,.23h0c-.46,0-1-.04-1.45-.24l.06-7.15-2.1,.18,.22,8.73c-.6,.33-1.22,.49-1.93,.49-1.22,0-1.69-.52-1.69-1.51,0-.44,.08-.99,.29-1.65l-1.58-.27c-.39,1-.52,1.77-.52,2.39,0,1.91,1.21,3.13,3.3,3.13,1.91,0,3.56-.99,3.88-2.73h.08c.42,.37,.99,.53,1.44,.53h0c.83,0,1.65-.17,2.36-.71h.1c.74,.61,1.49,.71,2.39,.71h0c.83,0,1.65-.17,2.36-.71h.1c.74,.61,1.49,.71,2.39,.71h0c.77,0,1.52-.14,2.25-.71h.09c.69,.6,1.53,.71,2.2,.71h.01c.8,0,1.59-.18,2.08-.62h.1c.66,.58,1.39,.67,1.79,.67,.69,0,1.31-.25,1.77-.58h.09c.48,.39,1.02,.62,1.83,.62,.7,0,1.27-.14,1.84-.53h.09c.47,.28,1.11,.45,1.94,.45h0c.83,0,1.65-.17,2.36-.71h.1c.74,.61,1.49,.71,2.39,.71,.98,0,1.83-.19,2.31-.46,.69-.38,1.02-1.13,1.02-2.33"/><path class="cls-1" d="M279.71,38.74v-.1c.69-.39,1.02-.94,1.02-1.69,0-1.27-.97-1.94-2.91-1.94-.56,0-1.74,.05-2.66,.2v7.64c1.41,.14,2.29,.14,2.45,.14,2.15,0,3.32-.88,3.32-2.47,0-.98-.44-1.51-1.22-1.78m-2.54-2.25c.25-.01,.51-.03,.65-.03,.55,0,.91,.23,.91,.8,0,.33-.13,.61-.41,.79-.18,.04-.46,.05-.83,.05h-.33v-1.61Zm1.36,4.88c-.2,.06-.52,.08-.79,.08s-.37-.01-.57-.05v-1.84h.66c.7,0,1.04,.25,1.04,.99,0,.34-.08,.6-.34,.83"/><path class="cls-1" d="M285.36,36.31c-2,0-3.19,1.31-3.19,3.44s1.28,3.24,3.29,3.24c.64,0,1.41-.09,2.11-.33l.1-1.42c-.8,.15-1.32,.19-1.96,.19-.92,0-1.42-.25-1.55-1.25h3.79c.11-.51,.11-.89,.11-1.3,0-1.65-1.02-2.58-2.71-2.58m-1.19,2.67c.04-.34,.13-.69,.28-.95,.27-.2,.64-.23,.8-.23,.61,0,.84,.36,.89,1.18h-1.97Z"/><polygon class="cls-1" points="291.67 41.14 294.21 37.7 294.19 36.46 289.4 36.46 289.31 37.98 291.85 37.98 291.86 38.06 289.26 41.46 289.19 42.84 294.12 42.84 294.3 41.23 291.7 41.23 291.67 41.14"/><path class="cls-1" d="M298.27,36.29c-.72,0-1.6,.14-2.35,.39l-.11,1.59c.72-.2,1.6-.3,2.15-.3,1.11,0,1.13,.42,1.11,.99v.03c-.15-.01-.34-.03-.58-.03-.64,0-1.31,.1-1.78,.28-.84,.32-1.32,1.03-1.32,1.83s.44,1.88,1.98,1.88c.65,0,1.19-.22,1.77-.74l.08,.03,.19,.61h1.6v-4.19c0-1.61-1.04-2.36-2.72-2.36m.74,4.76c-.43,.32-.81,.38-1.04,.38-.47,0-.69-.24-.69-.66,0-.15,.03-.32,.14-.52,.22-.13,.52-.19,.88-.19,.17,0,.45,.01,.74,.03l-.02,.97Z"/><path class="cls-1" d="M304.7,40.64v-6.89l-1.96,.27v6.91c0,.81,.1,1.35,.42,1.64,.34,.31,.79,.36,1.26,.36s.93-.06,1.18-.11l.11-1.51-.99-.08c-.01-.18-.03-.36-.03-.59"/><path class="cls-1" d="M309.87,36.31c-2,0-3.19,1.31-3.19,3.44s1.28,3.24,3.29,3.24c.64,0,1.41-.09,2.11-.33l.1-1.42c-.8,.15-1.32,.19-1.96,.19-.91,0-1.42-.25-1.55-1.25h3.79c.11-.51,.11-.89,.11-1.3,0-1.65-1.02-2.58-2.71-2.58m-1.19,2.67c.04-.34,.13-.69,.28-.95,.27-.2,.64-.23,.8-.23,.61,0,.84,.36,.89,1.18h-1.97Z"/><path class="cls-1" d="M316.01,41.23c-.01-.18-.03-.36-.03-.59v-6.89l-1.96,.27v6.91c0,.81,.1,1.35,.42,1.64,.34,.31,.79,.36,1.26,.36s.93-.06,1.18-.12l.11-1.51-.99-.08Z"/><path class="cls-1" d="M225.12,8.46c.19,0,.34-.15,.34-.34,0-.19-.15-.34-.34-.34-.19,0-.34,.15-.34,.34,0,.19,.15,.34,.34,.34"/><path class="cls-1" d="M259.52,24.71h-.87c0-.76-.01-1.84-.08-2.47-.22,0-.35,0-.54,.04,.06,1.08,.07,1.89,.03,2.88l1.96,.03c0-.13-.02-1.92-.05-2.51l.52-.04c.04,.85,.04,1.66,.02,2.62,.19,.03,.32,.03,.54,.03,.05-.67-.04-3.07-.05-3.16l-1.56,.11s.08,1.76,.08,2.47"/><path class="cls-1" d="M243.96,12.06c-.07,.03-.27,.03-.41,.1l.21,.31c.1-.07,.31-.1,.21-.31-.17,.03,0,.14-.2,.14-.04,0-.07-.02-.07-.04-.01-.16,.31-.06,.27-.2"/><path class="cls-1" d="M233.58,12.31c-.21,0-.03-.11-.2-.14-.1,.21,.1,.24,.21,.31l.21-.31c-.14-.07-.34-.07-.41-.1-.04,.14,.28,.04,.27,.2,0,.02-.03,.04-.07,.04"/><path class="cls-1" d="M248.48,37.27h3.28c.13-.13,.25-.25,.38-.39h-3.83c-3.14-.76-6.38-1.14-9.64-1.14-3.26,0-6.5,.38-9.64,1.14h-3.83c.13,.13,.25,.26,.38,.38h3.27v.91h-2.29c3.26,2.8,7.49,4.49,12.11,4.49,4.62,0,8.85-1.69,12.1-4.49h-2.29v-.91Z"/><path class="cls-1" d="M220.31,27.03h8.85v1.31h-8.59c.52,2.24,1.46,4.32,2.71,6.17h30.78c1.26-1.85,2.19-3.93,2.71-6.17h-8.6v-1.3h8.86c.16-.96,.23-1.95,.24-2.95,0-7.97-5.04-14.79-12.1-17.43-.79-.3-1.6-.54-2.43-.72,.81,.26,1.7,.69,2.6,1.28,3.6,2.37,7.26,7.31,5.49,14.06,0,.02-.02,.04-.02,.07h-.53s.01-.08,.02-.12c.05-.16,.08-.28,.14-.56-.16,.25-.35,.48-.55,.68h-.87c.21-.28,.34-.58,.41-.92-.25,.38-.52,.7-.81,.92h-.64s.02-.02,.03-.03c.29-.19,.98-.97,.97-1.89-.19,.78-.82,1.52-1.51,1.92h-.71s.02-.01,.03-.01c.37-.18,1.1-.66,1.3-1.1-.62,.45-1.3,.84-1.93,1.11h-1.07c.9-.39,1.68-.86,2.05-1.71-.94,.79-2.03,1.41-3.67,1.71h-2.59c-.01-.11,.14-.22,.48-.26,2.29-.19,5.32-1.27,6-3.2-1.15,1.23-2.85,2.19-4.27,2.09-.53-.04-.67-.45-.07-.55,1.91-.31,3.75-1.42,3.99-3.16-.36,.93-1.05,1.52-1.87,1.66-.3,.05-.53-.16-.09-.3,.52-.17,1.23-.69,1.29-1.28-.24,.47-.73,.65-1.06,.66-.26,0-.25-.13,0-.23,.06-.02,.12-.06,.17-.1,.35-.28,.57-.91,.57-1.84,0-.07,0-.14,0-.22-.83,.55-1.53,1.17-1.51,1.85,.03,.61-.07,1.64-.58,2.36-.31,.1-.63,.18-.95,.23-.55,.09-.73,.4-.71,.67,.02,.35,.34,.61,.82,.64,.04,0,.09,0,.13,0-.48,.13-.98,.22-1.46,.29,.22-1.91,.56-2.93,1.41-4.11l-.06-.03c-.26,.23-.48,.49-.67,.79-.02-.41,.04-.89,.2-1.27,.03,.03,.06,.07,.09,.09l.05,.05,.07-.02c.56-.13,1.46-.65,2.08-1.18l-.08-.09c-.58,.45-1.44,.86-2,.98-.22-.19-.47-.44-.32-1.27l-.06-.02c-.09,.27-.14,.5-.14,.7-.14-.04-.23-.26-.16-.97,.04-.42,.1-.52,.43-.75,.32-.23,.62-.18,.9-.05,.15,.07,.11,.14,0,.14-.11-.01-.31,0-.31,0,.21,.11,.29,.17,.36,.23,.07,.06,.06,.16-.09,.12-.15-.04-.32-.08-.44-.11,.12,.09,.21,.16,.28,.26,.06,.07-.03,.15-.13,.07-.11-.07-.28-.14-.44-.15,.13,.06,.2,.12,.27,.18,.06,.05,0,.13-.09,.08-.13-.07-.44,.05-.6-.04l.05,.12c.07,.06,.17,.09,.33,.09h.07s.04,0,.05,.01c.05,.03,.1,.04,.15,.04,.09,0,.17-.05,.21-.11,.02,0,.05,.01,.08,.01,.1,0,.2-.06,.24-.15,.01-.03,.02-.07,.02-.1,.14,0,.22-.09,.25-.17,.04-.09,.01-.18-.05-.27,.03-.03,.06-.07,.07-.11,.01-.05,.02-.18-.14-.28,.07-.09,.12-.2,.15-.33,.1-.01,.31-.05,.39-.01-.01,.04-.08,.07-.13,.11v.05c.1-.01,.17-.06,.2-.12,.02-.05,.07-.17-.03-.16-.11,0-.3,0-.41-.03,0-.03,0-.06,0-.09,.04-.04,.08-.09,.1-.16l-.04-.02c-.05,.06-.15,.09-.3,.11-.03-.26-.07-.45-.12-.58,.03,0,.05-.02,.08-.03,.18-.08,.39-.13,.61-.17,.08,.11,.23,.28,.49,.41,.08,.28-.04,.72-.19,.89-.05,.02-.1,.05-.14,.08-.21,.15-.32,.4-.37,.75-.13,.02-.26,.1-.35,.26l.04,.04c.05-.13,.29-.14,.48-.11,.04-.33,.17-.64,.34-.77,.16-.12,.39-.19,.66-.14l.02-.09c-.14-.06-.28-.09-.41-.08,.12-.3,.12-.53,.04-.77,.19,.08,.42,.14,.7,.15,.05,.35,.17,.68,.39,1l.17-.12h0c.07-.37,.11-.72,.11-1.05,0-2.14-1.35-3.55-2.32-4.11,1.14,.98,2.15,2.33,1.98,4.69-.13-.35-.17-.72-.17-1.15,0-.05-.04-.09-.09-.1-.15-.02-.31-.04-.46-.04-.14-.72-.71-.93-1.15-.89-.39,.03-.8,.27-.93,.66-.3-1.52-1.17-2.7-2.53-3.33-1.34-.63-.94-1.41-.31-1.34-.18-.23-.25-.53-.12-.78,.1-.2,.34-.36,.78-.39-.29-.03-.59-.06-.88-.08-.41-.03-.82-.04-1.23-.04-.42,0-.83,.01-1.24,.04-.3,.02-.59,.04-.88,.08,.43,.04,.67,.19,.77,.39,.13,.24,.06,.55-.12,.78,.63-.07,1.03,.72-.31,1.34-1.36,.64-2.22,1.81-2.53,3.33-.13-.39-.54-.62-.93-.66-.44-.04-1.01,.17-1.15,.89-.15,0-.3,.02-.46,.04-.05,0-.09,.05-.08,.1,0,.43-.04,.8-.17,1.16-.17-2.37,.84-3.72,1.98-4.7-1.11,.64-2.75,2.43-2.22,5.16l.17,.11c.22-.32,.33-.65,.39-1,.28-.01,.51-.07,.7-.15-.08,.25-.08,.48,.03,.77-.13,0-.27,.02-.41,.08l.02,.09c.27-.05,.5,.02,.66,.14,.18,.13,.3,.45,.35,.77,.19-.03,.42-.02,.48,.11l.04-.04c-.09-.16-.22-.24-.35-.26-.06-.35-.16-.59-.37-.75-.04-.03-.09-.05-.14-.08-.14-.16-.27-.6-.19-.89,.25-.13,.41-.3,.49-.41,.22,.04,.43,.1,.61,.18,.03,.01,.05,.02,.08,.03-.05,.13-.09,.32-.12,.59-.15-.01-.25-.05-.3-.11l-.04,.02c.02,.06,.05,.12,.1,.16,0,.03,0,.06,0,.09-.11,.02-.3,.04-.4,.03-.11,0-.06,.11-.03,.16,.03,.06,.11,.11,.2,.12v-.05c-.05-.04-.12-.07-.13-.11,.08-.04,.3,0,.39,.01,.03,.12,.09,.24,.16,.33-.16,.1-.15,.22-.14,.28,0,.04,.03,.09,.07,.12-.07,.08-.08,.18-.05,.26,.03,.08,.11,.16,.25,.17,0,.03,.01,.07,.02,.1,.04,.09,.14,.15,.24,.15,.03,0,.05,0,.07-.01,.05,.07,.13,.11,.21,.11,.06,0,.11-.01,.15-.04,.01,0,.03-.01,.05,0h.07c.16,0,.26-.02,.33-.09l.05-.12c-.16,.09-.47-.03-.6,.05-.08,.05-.15-.03-.08-.08,.06-.06,.14-.12,.27-.18-.16,.02-.35,.08-.44,.15-.1,.07-.19,0-.13-.07,.08-.1,.16-.16,.28-.26-.11,.02-.28,.07-.44,.11-.15,.03-.16-.06-.09-.12,.07-.06,.15-.12,.36-.22,0,0-.2-.01-.31,0-.11,0-.15-.07,0-.13,.28-.12,.57-.18,.9,.06,.32,.24,.38,.33,.42,.75,.07,.71-.02,.92-.16,.97,0-.2-.05-.43-.14-.7h-.06c.15,.84-.1,1.09-.32,1.28-.55-.13-1.41-.53-2-.99l-.07,.1c.61,.53,1.51,1.05,2.08,1.18h.06l.06-.03s.07-.06,.1-.09c.16,.38,.22,.86,.2,1.27-.19-.3-.41-.56-.67-.79l-.06,.03c.85,1.18,1.19,2.21,1.41,4.11-.49-.06-.98-.16-1.46-.29,.05,0,.09,0,.14,0,.47-.03,.8-.29,.82-.64,.01-.27-.17-.58-.71-.66-.33-.06-.65-.13-.96-.24-.51-.72-.61-1.75-.58-2.36,.02-.68-.67-1.3-1.51-1.85,0,.08,0,.15,0,.22,0,.93,.22,1.56,.57,1.84,.05,.04,.11,.08,.17,.1,.24,.1,.26,.24,0,.23-.33-.01-.82-.19-1.06-.66,.06,.59,.77,1.12,1.28,1.29,.44,.14,.21,.35-.09,.3-.83-.13-1.52-.73-1.87-1.66,.24,1.74,2.08,2.84,3.99,3.16,.59,.1,.46,.51-.07,.54-1.41,.1-3.12-.86-4.27-2.09,.68,1.92,3.71,3.01,6,3.2,.34,.03,.49,.15,.48,.26h-2.59c-1.64-.3-2.73-.93-3.67-1.71,.37,.85,1.15,1.32,2.05,1.71h-1.07c-.63-.27-1.31-.66-1.93-1.11,.19,.44,.93,.92,1.3,1.1,.01,0,.02,0,.03,.02h-.71c-.69-.39-1.33-1.14-1.51-1.92-.01,.91,.68,1.7,.98,1.89l.03,.03h-.64c-.29-.22-.56-.54-.81-.92,.07,.34,.2,.64,.41,.92h-.87c-.21-.2-.39-.44-.55-.68,.06,.29,.09,.41,.14,.57,.01,.04,.02,.08,.03,.12h-.53s-.01-.04-.02-.06c-1.77-6.74,1.89-11.68,5.48-14.05,.89-.59,1.78-1.03,2.58-1.29-.83,.19-1.64,.43-2.42,.72-7.04,2.65-12.07,9.46-12.08,17.42,0,1,.08,1.99,.23,2.95m25.11-14.63c-.62-.03-.96-.31-1.12-.5,.12-.02,.25-.03,.38-.03,.08,.15,.27,.39,.73,.43,0,.03,0,.07,0,.1m-.03-.5c0,.09,0,.17,0,.26-.32-.04-.48-.18-.55-.29,.18,0,.36,.01,.55,.04m-.6-.38s.03,.09,.04,.14c-.51,0-.99,.09-1.38,.25-.08,.03-.17,.06-.24,.01-.02-.01-.03-.03-.04-.04,.32-.21,.91-.38,1.62-.37m-.89-.54s.06,0,.09,0c.27,0,.55,.11,.72,.4-.68,0-1.26,.17-1.6,.37,0-.02,0-.04,0-.06,0-.41,.41-.67,.79-.7m-.8,1.11s.1,.06,.17,.06c.06,.1,.13,.28,.14,.62,0,.08,.06,.14,.13,.13,.05,0,.1-.02,.14-.04-.01,.16-.06,.28-.21,.43-.15-.06-.28-.09-.4-.09,.02-.4,.02-.78-.02-1.15,.02,.02,.03,.03,.05,.04m-11.19,.3c.02-.16,.03-.33,.03-.5,.38-.05,.75-.04,1.09,0-.16,.19-.49,.46-1.12,.5m.58-.73c.13-.55,.56-.71,.93-.68,.38,.03,.78,.29,.79,.71,0,.09-.02,.19-.09,.24-.07,.05-.17,.02-.24-.01-.4-.17-.88-.25-1.39-.25m1.77,1.54c-.13,0-.26,.03-.4,.09-.14-.15-.19-.27-.21-.43,.05,.02,.09,.03,.14,.04,.07,.01,.14-.06,.14-.13,0-.34,.07-.52,.14-.62,.07,0,.13-.03,.18-.06,.01-.01,.03-.03,.04-.04-.03,.37-.04,.75-.02,1.15m-8.6,13.44h-.54l2.21-3.04h.04v.62l-1.71,2.42Zm12.48-2.17c.08,.06,.16,.12,.24,.19l.09,.08v1.9h-5.84v-1.9s.06-.05,.1-.08c.07-.06,.15-.13,.23-.19,.74-.56,1.64-.86,2.58-.87h.02c.94,0,1.84,.31,2.58,.87m-.73-.87h2.5c-.45,.2-.87,.46-1.24,.8-.38-.34-.81-.6-1.25-.8m9.12,3.42v1.3h-15.75v-1.3h15.75Zm-1.84-.38h-5.84v-1.9s.06-.06,.09-.08c.08-.07,.16-.13,.24-.19,.74-.56,1.64-.86,2.58-.87h.02c.94,0,1.84,.31,2.58,.87,.08,.06,.16,.12,.24,.19,.03,.03,.06,.05,.09,.08v1.9Zm-18-3.42v-.54h23.93v.53h-23.93Zm1.06,.39h5.94c-.48,.21-.93,.5-1.32,.87h-4.61v-.87Zm.62,3.04l.23-1.79h3.65v1.79h-1.52c-.12-.3-.41-.52-.76-.52-.35,0-.64,.22-.76,.52h-.84Zm2.03,.3v1.48c0,.24-.19,.43-.43,.43-.24,0-.43-.2-.43-.43v-1.48c0-.24,.2-.43,.43-.43,.24,0,.43,.19,.43,.43m-2.3,1.78h1.11c.12,.31,.41,.52,.76,.52,.35,0,.64-.22,.76-.52h1.52v2.72h-4.5l.36-2.72Zm-.4,3.11h4.55v.53h-4.62l.07-.53Zm4.55,2.3h-5.69v-1.38h5.69v1.38Zm.38,0v-5.4h5.84v5.4h-5.84Zm6.22,0v-5.4h5.84v5.4h-5.84Zm11.91,0h-5.69v-1.39h5.69v1.39Zm-1.08-1.77h-4.61v-.53h4.55l.07,.53Zm-.47-3.63l.35,2.72h-4.5v-2.72h1.52c.12,.3,.41,.52,.76,.52,.34,0,.64-.22,.76-.52h1.11Zm-2.3-.29v-1.48c0-.24,.2-.43,.43-.43,.24,0,.43,.2,.43,.43v1.48c0,.24-.2,.43-.43,.43-.24,0-.43-.2-.43-.43m1.19-1.78c-.12-.3-.42-.52-.76-.52-.35,0-.64,.22-.76,.52h-1.52v-1.79h3.64l.23,1.79h-.84Zm1.45-2.17h-4.61c-.4-.37-.84-.66-1.32-.87h5.93v.87Zm2.11,2.17l-1.72-2.44v-.6h.05l2.21,3.04h-.54Zm5.01-.53l-5.35-5.32c.03-.12,.06-.25,.08-.37l5.32,5.17c-.02,.18-.03,.36-.05,.53m-.17-5.23l-4.86-3.45c0-.13,0-.26-.02-.38l4.77,3.31c.04,.17,.07,.35,.11,.52m-7.54-10.79l1.57,.31c.13,.11,.26,.23,.38,.34l-1.74-.36c-.07-.1-.15-.2-.22-.29m1.92,3.44c-.05-.12-.09-.24-.13-.36l3.35,1.42c.09,.15,.19,.31,.28,.46l-3.49-1.52Zm-8.61,2.71c-.13,.49-.15,1.04-.08,1.44-.38,.76-.6,1.72-.73,3.01-.05,0-.11,.02-.16,.02-.61,.05-.77,.33-.82,.51-.35-.04-.72-.09-1.04-.15,.57-.19,.98-.4,1.28-.59,.31-.2,.5-.38,.64-.53-.49,.29-1.05,.49-1.64,.59,.05-.09,.08-.19,.08-.28,0-.19-.08-.42-.34-.58,1.15-.3,1.79-.79,2.47-1.62-.44,.28-.94,.45-1.3,.47-.02,0-.04,0-.05,0-.31,0-.33-.21,0-.31,.49-.15,.95-.47,1.18-.85-.18,.13-.48,.18-.79,.18-.31,0-.66-.22-.07-.42,.5-.17,.95-.46,1.34-.89m-2.41-1.65c.06-.01,.13-.02,.19-.04l.53,2.33c-.06,.03-.11,.06-.15,.1-.05,.04-.09,.08-.12,.13l-.45-2.52Zm1.27-.37c.06-.02,.12-.05,.18-.08l.79,1.74-.1,.11s-.08,.08-.12,.12l-.75-1.9Zm-3.36-7.88c0-.12-.03-.34-.07-.45,.3-.02,.65-.02,.96-.02,.31,0,.65,0,.96,.02-.05,.11-.08,.33-.08,.45-.27-.13-.56-.21-.88-.21-.32,0-.62,.08-.88,.21m-1.04,2.3c.22,.85,1,1.49,1.93,1.49,.92,0,1.7-.63,1.93-1.48,.46,.26,.85,.61,1.17,1.02-.56,1.14-1.74,1.92-3.09,1.92-1.36,0-2.53-.79-3.1-1.93,.32-.41,.71-.75,1.17-1.02m-1.74,2.01c.8,1.16,2.15,1.93,3.66,1.93,1.51,0,2.85-.77,3.66-1.92,.04,.11,.08,.21,.12,.33-.87,1.14-2.24,1.88-3.78,1.88-1.55,0-2.92-.75-3.78-1.89,.03-.11,.07-.22,.12-.33m-.37,1.93c0-.32,.04-.64,.09-.93,.97,1.09,2.38,1.77,3.95,1.77,1.56,0,2.97-.69,3.94-1.76,.05,.3,.08,.61,.09,.93-1.07,.96-2.48,1.55-4.02,1.55-1.55,0-2.97-.59-4.04-1.56m4.25,6.96c-.14-.02-.28-.04-.42-.06l.11-4.77s.06,0,.1,0c.03,0,.06,0,.1,0l.11,4.83Zm-1.43-4.95l-.45,2.52s-.07-.09-.12-.13c-.04-.04-.09-.07-.15-.1l.53-2.33c.06,.02,.13,.03,.19,.04m-1.26-.37l-.75,1.9s-.08-.08-.12-.12l-.1-.11,.79-1.74c.06,.03,.12,.05,.18,.08m-.18,6.49c-.05,0-.11-.01-.16-.02-.13-1.28-.34-2.25-.72-3,.06-.4,.05-.95-.09-1.44,.39,.44,.85,.72,1.34,.89,.59,.2,.25,.42-.07,.42-.32,0-.61-.05-.79-.18,.23,.39,.7,.71,1.19,.85,.33,.1,.32,.31,0,.31-.02,0-.03,0-.05,0-.35-.02-.85-.19-1.3-.47,.86,1.2,2.2,1.72,3.57,1.85,.72,.07,.69,.69-.14,.72-1,.03-1.86-.07-2.85-.69,.54,.66,1.84,1.18,2.95,1.4h-2.05c0-.12-.04-.57-.83-.64m15.43,1.02v.58h-25.55v-.58h25.55Zm-24.66-11.33l1.56-.31c-.07,.09-.15,.19-.22,.29l-1.73,.36c.12-.12,.25-.23,.38-.34m-3.56,4.19l3.34-1.41c-.05,.12-.09,.24-.14,.35l-3.48,1.52c.09-.15,.18-.31,.28-.46m-2.3,5.77l4.76-3.3c0,.12-.01,.25-.02,.38l-4.85,3.45c.03-.18,.07-.35,.11-.52m4.99,.07c.02,.13,.05,.25,.08,.38l-5.34,5.31c-.02-.17-.04-.35-.05-.53l5.32-5.16Z"/><path class="cls-1" d="M238.67,0c-13.28,0-24.08,10.8-24.08,24.08,0,13.28,10.8,24.08,24.08,24.08,13.28,0,24.08-10.8,24.08-24.08,0-13.28-10.8-24.08-24.08-24.08m0,47.62c-12.98,0-23.54-10.56-23.54-23.54,0-12.98,10.56-23.54,23.54-23.54,12.98,0,23.54,10.56,23.54,23.54,0,12.98-10.56,23.54-23.54,23.54"/><path class="cls-1" d="M226.49,5.13l.35,.57c.95-.57,2.05-1.18,2.94-1.65,.29-.16,.29,0,.38,.22,0,0-.82,.7-1.3,1.11-.32,.25-.54,.67-.25,1.11l.25,.41,.66-.41-.25-.45-.38,.25c-.1-.16-.13-.32,.44-.73l1.55-1.15-.38-.77c-.25-.51-.38-.48-.79-.29-.89,.45-2.05,1.08-2.81,1.53l-.16-.26c-.13-.19-.19-.22-.29-.16-.22,.13-.38,.25-.54,.38l.28,.45,.28-.19Z"/><path class="cls-1" d="M231.9,3.64c-.38,.51-.09,1.27,.13,1.94,.35-.16,.54-.25,.98-.41l-.28-.54-.54,.22c-.09-.32-.22-.86,.06-1.15,2.02,.32,2.81,.19,3.48,.83l.16-.06c-.13-.48-.38-.67-.82-.86,.44-.38,.76-.96,.47-1.78-.44,.03-.79,.09-1.14,.16l.1,.61c.28-.06,.51-.1,.79-.13-.03,.32-.06,.67-.63,.96-1.36-.35-2.4-.32-3.51-.7l-.09,.1c.16,.48,.41,.67,.85,.83"/><path class="cls-1" d="M236.51,1.66l.03,.67c1.14-.03,2.37-.03,3.38,0,.32,0,.22,.16,.22,.38,0,0-1.04,.22-1.68,.35-.38,.07-.76,.32-.76,.83v.51c.22-.03,.5-.03,.79,0,.03-.16,.06-.29,0-.54h-.44c0-.16,.03-.32,.76-.41l1.86-.22,.06-.86c.03-.57-.1-.6-.57-.64-.98-.06-2.31-.06-3.19-.03v-.32c0-.19-.06-.26-.16-.26l-.66,.06,.03,.51,.32-.03Z"/><path class="cls-1" d="M245.43,4.79c-.16-.22-.28-.35-.44-.51l.5-.45c.19-.16,.29-.38,.38-.64,.1-.25-.03-.38-.22-.45-.32-.13-.35-.13-.76-.26l-.22,.67,.66,.22c-.06,.25-.25,.51-.51,.7l-1.8-1.43-.13-.57c-.35-.1-.6-.13-1.01-.19l-.16,.67,1.07,.22c.69,.67,1.36,1.34,2.05,2.07-1.11-.35-2.24-.64-3.35-.86-.09,.22-.16,.45-.19,.64,1.23,.26,2.65,.61,3.79,1.02,.16-.29,.22-.51,.32-.86"/><path class="cls-1" d="M248.56,5.46c0-.29-.57-.32-.48,.19,.25,.19,.54,.06,.48-.19"/><path class="cls-1" d="M245.84,5.87c.98,.48,2.5,1.28,3.48,2.01l.47-.57c-.16-.13-.35-.25-.57-.38,.73-.16,.76-.22,1.01-.57l.25-.35c.28-.41,.19-.64-.13-.86-1.04-.73-1.93-1.24-3.19-1.78l-.32,.6c1.26,.54,2.02,.99,3.13,1.79l-.28,.48c-.19,.29-.35,.35-.85,.51-.85-.51-1.74-1.02-2.69-1.43l-.32,.57Z"/><path class="cls-1" d="M257.97,26.33c.48,.28,.89,.46,1.4,.77l-.17,1.12-1.58,.09-.09,.58,3.1-.21c.09-.41,.17-.89,.2-1.44l-2.8-1.49-.06,.57Zm1.88,.96l.45,.21c-.03,.26-.06,.48-.12,.67h-.47l.15-.89Z"/><path class="cls-1" d="M256.5,32.01c.69,.38,1.2,.57,1.77,.86l.22-.51c-.44-.25-.82-.38-1.26-.64,.22-.54,.36-.91,.55-1.49l2.31,.57,.16-.57-2.84-.7c-.28,.86-.58,1.64-.9,2.47"/><path class="cls-1" d="M254.84,34.92l.44,.35c.48-.67,.82-1.24,1.17-1.85l.66,.35c-.32,.67-.66,1.24-1.07,1.97l.44,.25,1.14-2.01,.41,.22c-.35,.86-.63,1.27-1.07,2.07l.41,.29c.57-.83,.95-1.59,1.39-2.58l-2.59-1.3c-.41,.83-.82,1.43-1.33,2.23"/><path class="cls-1" d="M254.02,36.03l1.64,1.31-1.49,.1,.19,1.56-1.71-1.47-.38,.41,2.31,1.91c.16-.13,.32-.29,.44-.48l-.22-1.43,1.52-.03,.32-.51-2.31-1.82-.32,.45Z"/><path class="cls-1" d="M252.78,9.95l.95-.85c-.09-.13-.22-.26-.38-.42-.29,.32-.89,.86-1.33,1.3,.66,.61,1.05,1.04,1.49,1.52l2.22-1.8-.38-.42c-.61,.51-1.21,.98-1.81,1.45l-.76-.78Z"/><path class="cls-1" d="M255.6,14.63l.44-.32c-.44-.8-.79-1.34-1.2-1.94l.69-.48c.41,.73,.76,1.21,1.17,1.98l.44-.25-1.17-1.98,.41-.29c.25,.38,.95,1.43,1.2,2.01l.47-.29c-.6-1.12-1.01-1.69-1.61-2.55l-2.37,1.72c.54,.73,1.04,1.56,1.52,2.39"/><path class="cls-1" d="M256.25,15.91l1.29-.64c.19,.38,.35,.64,.47,1.02l-1.2,1.05,.22,.61,1.23-1.18c.44,.92,1.67,.38,1.36-.54-.29-.86-.47-1.24-.98-2.1-.85,.38-1.74,.89-2.63,1.3l.22,.48Zm2.18-1.12c.41,.64,.57,1.21,.72,1.66,.13,.38-.38,.48-.47,.19-.19-.54-.41-1.08-.7-1.63l.45-.22Z"/><path class="cls-1" d="M257.9,21.34c1.13-.13,1.92-.29,2.89-.45l-.11-.51c-.82,.16-1.42,.24-2.3,.37-.11-.47-.19-.98-.33-1.46,.66-.25,1.38-.49,2.16-.71l-.14-.54c-1.06,.35-1.6,.5-2.72,.92,.22,.82,.4,1.64,.55,2.37"/><path class="cls-1" d="M249.31,40.6l-.71,.45,.36,.59,.49-.3c.1-.06,.19-.12,.28,.01l.3,.46,.2-.34-.54-.79c-.09-.13-.18-.2-.38-.08"/><path class="cls-1" d="M247.12,41.77c-.68,.32-1.81,.81-3.12,1.23l.22,.68c1.54-.47,2.19-.8,3.09-1.17,.22-.09,.39-.14,.53,.15l.78,1.69,.4-.46-.96-1.86c-.23-.46-.52-.47-.94-.26"/><path class="cls-1" d="M242.83,43.3l-.89,.19,.1,.7,.67-.14c.19-.02,.28-.02,.34,.24,.13,.67,.15,.96,.31,1.83l.45-.27-.49-2.19c-.08-.35-.24-.42-.49-.37"/><path class="cls-1" d="M241,43.63l-.82,.02,.02,.7h.73c0,.43-.02,.91-.05,1.1-.64,.47-1.18,.49-1.68,.48h-.66c.13-.42,.33-.87,.53-1.31,.07-.16,.13-.25,.38-.25h.19l-.02-.7c-.44,.02-.76,.02-1.3,0v.7h.52l-.49,.83c-.39,.63-.52,.66-1.18,.58l.06-1.24c0-.1,.04-.19,.19-.19h.35l-.02-.69c-.22,0-.79-.05-1.26-.09l-.04,.7,.38,.04-.13,2.07c.91,.11,2.27,.2,3.19,.09,.7-.37,.93-.56,1.41-1.06,.07-.28,.05-.76,.06-1.43,0-.25-.09-.35-.34-.36"/><path class="cls-1" d="M235.24,43.42c-1.33-.29-1.74-.38-2.62-.64l.1-.32c.06-.19-.03-.25-.13-.29l-.57-.19-.19,.54,.32,.1-.19,.64c1.14,.35,2.24,.61,2.91,.73,.48,.1,.38,.06,.32,.45,0,0-1.01,.06-1.52,.1-.41,.03-.82,.09-.98,.57l-.16,.48c.25,.09,.44,.16,.76,.22l.16-.48-.41-.13c.03-.16,.19-.19,.32-.19l2.24,.03,.16-.89c.09-.57-.06-.64-.51-.73"/><path class="cls-1" d="M230.37,41.81c-.98-.48-2.11-1.1-3.09-1.83l-.48,.57c.16,.13,.35,.26,.57,.38-.73,.15-.76,.22-1.02,.57l-.64,.85c1.51,1.09,2.55,1.67,4.44,2.48l.64-1.21c.54-1.11,.54-1.33-.43-1.82m0,1.34l-.45,.82c-1.36-.58-2.14-1.03-3.31-1.87l.29-.48c.19-.29,.35-.35,.85-.51l2.37,1.32c.34,.19,.44,.32,.25,.7"/><path class="cls-1" d="M220.46,34.65c-.73,0-1.21,.56-.55,1.52,.43,.64,1.09,1.51,1.43,1.9l2.23-1.69-1.31-1.99c-.56-.83-1.7-.43-1.8,.27m.98,2.66c-.56-.71-.78-1-1.28-1.77-.22-.32,.1-.54,.35-.19,.49,.71,.84,1.13,1.28,1.7l-.35,.25Zm.7-.5c-.31-.45-.75-1.03-1-1.41-.59-.87,.27-1.27,.67-.66l1.06,1.54-.73,.53Z"/><path class="cls-1" d="M220.19,30.25l-.51,.22c.34,.83,.62,1.41,.92,2.08l-.7,.34c-.34-.74-.68-1.38-.92-2.15l-.48,.22,.89,2.14-.45,.25c-.19-.35-.74-1.66-.92-2.21l-.45,.19c.4,1.22,.74,1.86,1.17,2.75,.95-.47,1.59-.78,2.54-1.34-.37-.77-.74-1.66-1.11-2.5"/><path class="cls-1" d="M217.15,27.86c.44,.26,1.98,1.39,2.38,1.72l.41-.16c-.24-.86-.45-1.72-.6-2.68l-.54,.09c.06,.61,.21,1.28,.33,1.79l-2.16-1.46-.51,.09c.15,1.05,.45,2.04,.72,3l.54-.18c-.21-.67-.4-1.34-.58-2.2"/><path class="cls-1" d="M219.27,25.53c-.54-.36-.91-.58-1.44-1,0-.64,.04-1.15,.08-1.66l1.37-.75,.04-.63c-1.08,.56-2.07,1.03-2.99,1.59-.04,.45-.04,.73-.01,1.02,1.28,1.04,2.54,1.88,3.01,2.11l-.05-.67Zm-1.95-1.26l-.47-.36v-.57l.48-.25-.02,1.18Z"/><path class="cls-1" d="M220.08,18.02l-1.7-.59-.19,.54,1.2,.43c-.16,.54-.36,1.17-.46,1.78l-2.27-.38-.1,.57,2.84,.45c.2-.99,.4-1.78,.7-2.8"/><path class="cls-1" d="M221.63,14.34l-.47-.23c-.42,.76-.74,1.46-1.07,2.28l-.72-.33c.29-.79,.71-1.62,1.07-2.35l-.47-.23c-.42,.66-.81,1.65-1.13,2.34l-.35-.16c.36-.98,.62-1.52,1.07-2.41l-.47-.23c-.52,.92-.97,1.93-1.36,2.98,.91,.39,1.79,.75,2.74,1.08,.29-.89,.78-1.9,1.17-2.76"/><path class="cls-1" d="M223.73,11.21l-1.63-1.26-.32,.47,1.19,.87-.99,1.39-1.92-1.26-.29,.51c.91,.58,1.51,1,2.42,1.52,.48-.76,1.06-1.49,1.54-2.24"/><path class="cls-1" d="M251.68,7.95c.18-.04,.3-.22,.27-.4-.04-.19-.22-.3-.4-.27-.18,.04-.3,.22-.27,.4,.04,.18,.22,.3,.4,.27"/><path class="cls-1" d="M251.81,40.05c-.19,0-.35,.15-.35,.33,0,.19,.15,.35,.33,.35,.19,0,.35-.15,.35-.33,0-.19-.15-.35-.33-.35"/><path class="cls-1" d="M224.44,39.14c-.19,.02-.32,.19-.3,.38s.19,.32,.38,.3c.19-.02,.32-.19,.3-.38-.02-.19-.19-.32-.38-.3"/><rect class="cls-1" x="238.56" y="10.47" width=".22" height=".76"/><rect class="cls-1" x="237.59" y="10.65" width=".76" height=".22" transform="translate(166.15 237.88) rotate(-75.04)"/><rect class="cls-1" x="236.93" y="10.38" width=".76" height=".22" transform="translate(109.84 210.93) rotate(-60.08)"/><rect class="cls-1" x="236.37" y="9.94" width=".76" height=".22" transform="translate(62.61 170.75) rotate(-45.13)"/><rect class="cls-1" x="235.94" y="9.38" width=".76" height=".22" transform="translate(27.22 120.01) rotate(-30.16)"/><rect class="cls-1" x="239.27" y="10.38" width=".22" height=".76" transform="translate(5.32 62.08) rotate(-14.94)"/><rect class="cls-1" x="239.93" y="10.11" width=".22" height=".76" transform="translate(26.77 121.14) rotate(-29.93)"/><rect class="cls-1" x="240.49" y="9.67" width=".22" height=".76" transform="translate(62.99 172.67) rotate(-44.87)"/><rect class="cls-1" x="240.92" y="9.11" width=".22" height=".76" transform="translate(111.64 213.07) rotate(-59.82)"/></g></g></svg>